<?xml version="1.0" encoding="UTF-8"?>
<svg width="1000px" height="715px" viewBox="0 0 1000 715" version="1.1" xmlns="http://www.w3.org/2000/svg" xmlns:xlink="http://www.w3.org/1999/xlink" style="background: #F4F4F4;">
    <!-- Generator: Sketch 49.3 (51167) - http://www.bohemiancoding.com/sketch -->
    <defs>
        <path d="M110,7.5 L110,708.277425" id="path-1"></path>
        <filter x="-150.0%" y="-0.4%" width="400.0%" height="100.9%" filterUnits="objectBoundingBox" id="filter-2">
            <feGaussianBlur stdDeviation="1.5" in="SourceAlpha" result="shadowBlurInner1"></feGaussianBlur>
            <feOffset dx="0" dy="1" in="shadowBlurInner1" result="shadowOffsetInner1"></feOffset>
            <feComposite in="shadowOffsetInner1" in2="SourceAlpha" operator="arithmetic" k2="-1" k3="1" result="shadowInnerInner1"></feComposite>
            <feColorMatrix values="0 0 0 0 0   0 0 0 0 0   0 0 0 0 0  0 0 0 0.5 0" type="matrix" in="shadowInnerInner1"></feColorMatrix>
        </filter>
        <path d="M11,4 L11,2 L17,6.5 L11,11 L11,9 L5,9 L5,4 L11,4 Z" id="path-3"></path>
    </defs>
    <g id="Artboard" stroke="none" stroke-width="1" fill="none" fill-rule="evenodd">
        <path d="M140.5,386.915094 L140.5,687.955865 C140.5,689.343051 141.616171,690.457686 143.000016,690.457686 L954.25669,690.457686 C955.639647,690.457686 956.756706,689.339012 956.756706,687.955865 L956.756706,386.915094 C956.756706,385.527908 955.640535,384.413273 954.25669,384.413273 L143.000016,384.413273 C141.617059,384.413273 140.5,385.531947 140.5,386.915094 Z" id="Rectangle" stroke="#F0405E"></path>
        <g id="Path" stroke-linecap="round" stroke-linejoin="round">
            <use fill="black" fill-opacity="1" filter="url(#filter-2)" xlink:href="#path-1"></use>
            <use stroke="#EFEFEF" stroke-width="2" xlink:href="#path-1"></use>
        </g>
        <rect id="Rectangle" stroke="#F0405E" x="453.5" y="49.5" width="503" height="299"></rect>
        <path d="M140.5,126.00286 L140.5,345.99714 C140.5,347.381667 141.615442,348.5 142.993049,348.5 L414.006951,348.5 C415.381067,348.5 416.5,347.378383 416.5,345.99714 L416.5,126.00286 C416.5,124.618333 415.384558,123.5 414.006951,123.5 L142.993049,123.5 C141.618933,123.5 140.5,124.621617 140.5,126.00286 Z" id="Rectangle" stroke="#F0405E"></path>
        <text id="#-Pairs" font-family="AvenirNext-Medium, Avenir Next" font-size="9" font-weight="400" letter-spacing="0.00352564035" fill="#161318">
            <tspan x="285" y="254"># Pairs</tspan>
        </text>
        <path d="M285.5,262.994282 L285.5,286.005718 C285.5,287.383018 286.619629,288.5 288.001366,288.5 L334.998634,288.5 C336.384849,288.5 337.5,287.385652 337.5,286.005718 L337.5,262.994282 C337.5,261.616982 336.380371,260.5 334.998634,260.5 L288.001366,260.5 C286.615151,260.5 285.5,261.614348 285.5,262.994282 Z" id="Rectangle-4" stroke="#F0405E"></path>
        <text id="Sizes" font-family="AvenirNext-Medium, Avenir Next" font-size="9" font-weight="400" letter-spacing="0.00352564035" fill="#161318">
            <tspan x="153" y="254">Sizes</tspan>
        </text>
        <rect id="Rectangle-4" stroke="#F0405E" x="153.5" y="260.5" width="112" height="28"></rect>
        <g id="Drop-Down" transform="translate(240.000000, 264.000000)" stroke="#F0405E">
            <path d="M0.5,3.00878799 L0.5,17.991212 C0.5,19.3777145 1.62266955,20.5 3.00878799,20.5 L17.991212,20.5 C19.3777145,20.5 20.5,19.3773305 20.5,17.991212 L20.5,3.00878799 C20.5,1.6222855 19.3773305,0.5 17.991212,0.5 L3.00878799,0.5 C1.6222855,0.5 0.5,1.62266955 0.5,3.00878799 Z" id="Rectangle-4"></path>
            <polyline id="Path-4" stroke-linecap="round" stroke-linejoin="round" points="6 8 11 14 16 8"></polyline>
        </g>
        <text id="Billing-Profiles" font-family="AvenirNext-Medium, Avenir Next" font-size="9" font-weight="400" letter-spacing="0.00352564035" fill="#161318">
            <tspan x="153" y="198">Billing Profiles</tspan>
        </text>
        <rect id="Rectangle-4" stroke="#F0405E" x="153.5" y="204.5" width="248" height="28"></rect>
        <g id="Drop-Down" transform="translate(376.000000, 208.000000)" stroke="#F0405E">
            <path d="M0.5,3.00878799 L0.5,17.991212 C0.5,19.3777145 1.62266955,20.5 3.00878799,20.5 L17.991212,20.5 C19.3777145,20.5 20.5,19.3773305 20.5,17.991212 L20.5,3.00878799 C20.5,1.6222855 19.3773305,0.5 17.991212,0.5 L3.00878799,0.5 C1.6222855,0.5 0.5,1.62266955 0.5,3.00878799 Z" id="Rectangle-4"></path>
            <polyline id="Path-4" stroke-linecap="round" stroke-linejoin="round" points="6 8 11 14 16 8"></polyline>
        </g>
        <text id="Create" font-family="AvenirNext-Medium, Avenir Next" font-size="12" font-weight="400" letter-spacing="0.00352564035" fill="#F0405E">
            <tspan x="140" y="112">Create</tspan>
        </text>
        <text id="View" font-family="AvenirNext-Medium, Avenir Next" font-size="12" font-weight="400" letter-spacing="0.00352564035" fill="#F0405E">
            <tspan x="450" y="41">View</tspan>
        </text>
        <text id="Log" font-family="AvenirNext-Medium, Avenir Next" font-size="12" font-weight="400" letter-spacing="0.00352564035" fill="#F0405E">
            <tspan x="141" y="373">Log</tspan>
        </text>
        <text id="#" font-family="AvenirNext-Medium, Avenir Next" font-size="12" font-weight="400" letter-spacing="0.00352564035" fill="#161318">
            <tspan x="154" y="402">#</tspan>
        </text>
        <text id="Site" font-family="AvenirNext-Medium, Avenir Next" font-size="12" font-weight="400" letter-spacing="0.00352564035" fill="#161318">
            <tspan x="179" y="402">Site</tspan>
        </text>
        <text id="Output" font-family="AvenirNext-Medium, Avenir Next" font-size="12" font-weight="400" letter-spacing="0.00352564035" fill="#161318">
            <tspan x="349" y="402">Output</tspan>
        </text>
        <text id="#" font-family="AvenirNext-Medium, Avenir Next" font-size="12" font-weight="400" letter-spacing="0.00352564035" fill="#161318">
            <tspan x="464" y="67">#</tspan>
        </text>
        <text id="Product" font-family="AvenirNext-Medium, Avenir Next" font-size="12" font-weight="400" letter-spacing="0.00352564035" fill="#161318">
            <tspan x="487" y="67">Product</tspan>
        </text>
        <text id="Size" font-family="AvenirNext-Medium, Avenir Next" font-size="12" font-weight="400" letter-spacing="0.00352564035" fill="#161318">
            <tspan x="657" y="67">Size</tspan>
        </text>
        <text id="Billings" font-family="AvenirNext-Medium, Avenir Next" font-size="12" font-weight="400" letter-spacing="0.00352564035" fill="#161318">
            <tspan x="727" y="67">Billings</tspan>
        </text>
        <text id="#-Pairs" font-family="AvenirNext-Medium, Avenir Next" font-size="12" font-weight="400" letter-spacing="0.00352564035" fill="#161318">
            <tspan x="910" y="67"># Pairs</tspan>
        </text>
        <text id="01" font-family="AvenirNext-Medium, Avenir Next" font-size="12" font-weight="400" letter-spacing="0.00352564035" fill="#161318">
            <tspan x="152" y="433">01</tspan>
        </text>
        <text id="01" font-family="AvenirNext-Medium, Avenir Next" font-size="12" font-weight="400" letter-spacing="0.00352564035" fill="#161318">
            <tspan x="461" y="97">01</tspan>
        </text>
        <text id="10.5" font-family="AvenirNext-Medium, Avenir Next" font-size="12" font-weight="400" letter-spacing="0.00352564035" fill="#161318">
            <tspan x="657" y="97">10.5</tspan>
        </text>
        <text id="10.5" font-family="AvenirNext-Medium, Avenir Next" font-size="12" font-weight="400" letter-spacing="0.00352564035" fill="#161318">
            <tspan x="727" y="97">10.5</tspan>
        </text>
        <text id="12" font-family="AvenirNext-Medium, Avenir Next" font-size="12" font-weight="400" letter-spacing="0.00352564035" fill="#161318">
            <tspan x="919" y="97">12</tspan>
        </text>
        <text id="SKU-12893708543" font-family="AvenirNext-Medium, Avenir Next" font-size="12" font-weight="400" letter-spacing="0.00352564035" fill="#161318">
            <tspan x="487" y="97">SKU 12893708543</tspan>
        </text>
        <text id="Kith" font-family="AvenirNext-Medium, Avenir Next" font-size="12" font-weight="400" letter-spacing="0.00352564035" fill="#161318">
            <tspan x="179" y="433">Kith</tspan>
        </text>
        <text id="Lorem-ipsum-dolor-si" font-family="AvenirNext-Medium, Avenir Next" font-size="12" font-weight="400" letter-spacing="0.00352564035" fill="#161318">
            <tspan x="349" y="433">Lorem ipsum dolor sit amet, consectetur adipiscing elit, sed do eiusmod tempor incididunt ut labore et…</tspan>
        </text>
        <text id="Lorem-ipsum-dolor-si" font-family="AvenirNext-Medium, Avenir Next" font-size="12" font-weight="400" letter-spacing="0.00352564035" fill="#161318">
            <tspan x="349" y="462">Lorem ipsum dolor sit amet, consectetur adipiscing elit, sed do eiusmod tempor incididunt ut labore et…</tspan>
        </text>
        <path d="M145.5,443.5 L950.139826,443.5" id="Path-3" stroke-opacity="0.176092618" stroke="#161318"></path>
        <path d="M463,108 L946.639826,108" id="Path-3" stroke-opacity="0.176092618" stroke="#161318"></path>
        <text id="01" font-family="AvenirNext-Medium, Avenir Next" font-size="12" font-weight="400" letter-spacing="0.00352564035" fill="#161318">
            <tspan x="461" y="127">01</tspan>
        </text>
        <text id="10.5" font-family="AvenirNext-Medium, Avenir Next" font-size="12" font-weight="400" letter-spacing="0.00352564035" fill="#161318">
            <tspan x="657" y="127">10.5</tspan>
        </text>
        <text id="10.5" font-family="AvenirNext-Medium, Avenir Next" font-size="12" font-weight="400" letter-spacing="0.00352564035" fill="#161318">
            <tspan x="727" y="127">10.5</tspan>
        </text>
        <text id="12" font-family="AvenirNext-Medium, Avenir Next" font-size="12" font-weight="400" letter-spacing="0.00352564035" fill="#161318">
            <tspan x="919" y="127">12</tspan>
        </text>
        <text id="SKU-12893708543" font-family="AvenirNext-Medium, Avenir Next" font-size="12" font-weight="400" letter-spacing="0.00352564035" fill="#161318">
            <tspan x="487" y="127">SKU 12893708543</tspan>
        </text>
        <path d="M463,138 L946.639826,138" id="Path-3" stroke-opacity="0.176092618" stroke="#161318"></path>
        <text id="01" font-family="AvenirNext-Medium, Avenir Next" font-size="12" font-weight="400" letter-spacing="0.00352564035" fill="#161318">
            <tspan x="461" y="157">01</tspan>
        </text>
        <text id="10.5" font-family="AvenirNext-Medium, Avenir Next" font-size="12" font-weight="400" letter-spacing="0.00352564035" fill="#161318">
            <tspan x="657" y="157">10.5</tspan>
        </text>
        <text id="10.5" font-family="AvenirNext-Medium, Avenir Next" font-size="12" font-weight="400" letter-spacing="0.00352564035" fill="#161318">
            <tspan x="727" y="157">10.5</tspan>
        </text>
        <text id="12" font-family="AvenirNext-Medium, Avenir Next" font-size="12" font-weight="400" letter-spacing="0.00352564035" fill="#161318">
            <tspan x="919" y="157">12</tspan>
        </text>
        <text id="SKU-12893708543" font-family="AvenirNext-Medium, Avenir Next" font-size="12" font-weight="400" letter-spacing="0.00352564035" fill="#161318">
            <tspan x="487" y="157">SKU 12893708543</tspan>
        </text>
        <path d="M463,168 L946.639826,168" id="Path-3" stroke-opacity="0.176092618" stroke="#161318"></path>
        <text id="01" font-family="AvenirNext-Medium, Avenir Next" font-size="12" font-weight="400" letter-spacing="0.00352564035" fill="#161318">
            <tspan x="461" y="187">01</tspan>
        </text>
        <text id="10.5" font-family="AvenirNext-Medium, Avenir Next" font-size="12" font-weight="400" letter-spacing="0.00352564035" fill="#161318">
            <tspan x="657" y="187">10.5</tspan>
        </text>
        <text id="10.5" font-family="AvenirNext-Medium, Avenir Next" font-size="12" font-weight="400" letter-spacing="0.00352564035" fill="#161318">
            <tspan x="727" y="187">10.5</tspan>
        </text>
        <text id="12" font-family="AvenirNext-Medium, Avenir Next" font-size="12" font-weight="400" letter-spacing="0.00352564035" fill="#161318">
            <tspan x="919" y="187">12</tspan>
        </text>
        <text id="SKU-12893708543" font-family="AvenirNext-Medium, Avenir Next" font-size="12" font-weight="400" letter-spacing="0.00352564035" fill="#161318">
            <tspan x="487" y="187">SKU 12893708543</tspan>
        </text>
        <path d="M463,198 L946.639826,198" id="Path-3" stroke-opacity="0.176092618" stroke="#161318"></path>
        <text id="01" font-family="AvenirNext-Medium, Avenir Next" font-size="12" font-weight="400" letter-spacing="0.00352564035" fill="#161318">
            <tspan x="461" y="217">01</tspan>
        </text>
        <text id="10.5" font-family="AvenirNext-Medium, Avenir Next" font-size="12" font-weight="400" letter-spacing="0.00352564035" fill="#161318">
            <tspan x="657" y="217">10.5</tspan>
        </text>
        <text id="10.5" font-family="AvenirNext-Medium, Avenir Next" font-size="12" font-weight="400" letter-spacing="0.00352564035" fill="#161318">
            <tspan x="727" y="217">10.5</tspan>
        </text>
        <text id="12" font-family="AvenirNext-Medium, Avenir Next" font-size="12" font-weight="400" letter-spacing="0.00352564035" fill="#161318">
            <tspan x="919" y="217">12</tspan>
        </text>
        <text id="SKU-12893708543" font-family="AvenirNext-Medium, Avenir Next" font-size="12" font-weight="400" letter-spacing="0.00352564035" fill="#161318">
            <tspan x="487" y="217">SKU 12893708543</tspan>
        </text>
        <path d="M463,228 L946.639826,228" id="Path-3" stroke-opacity="0.176092618" stroke="#161318"></path>
        <text id="01" font-family="AvenirNext-Medium, Avenir Next" font-size="12" font-weight="400" letter-spacing="0.00352564035" fill="#161318">
            <tspan x="461" y="247">01</tspan>
        </text>
        <text id="10.5" font-family="AvenirNext-Medium, Avenir Next" font-size="12" font-weight="400" letter-spacing="0.00352564035" fill="#161318">
            <tspan x="657" y="247">10.5</tspan>
        </text>
        <text id="10.5" font-family="AvenirNext-Medium, Avenir Next" font-size="12" font-weight="400" letter-spacing="0.00352564035" fill="#161318">
            <tspan x="727" y="247">10.5</tspan>
        </text>
        <text id="12" font-family="AvenirNext-Medium, Avenir Next" font-size="12" font-weight="400" letter-spacing="0.00352564035" fill="#161318">
            <tspan x="919" y="247">12</tspan>
        </text>
        <text id="SKU-12893708543" font-family="AvenirNext-Medium, Avenir Next" font-size="12" font-weight="400" letter-spacing="0.00352564035" fill="#161318">
            <tspan x="487" y="247">SKU 12893708543</tspan>
        </text>
        <path d="M463,258 L946.639826,258" id="Path-3" stroke-opacity="0.176092618" stroke="#161318"></path>
        <text id="Tasks" font-family="AvenirNext-DemiBold, Avenir Next" font-size="48" font-weight="500" letter-spacing="0.0141025605" fill="#161318">
            <tspan x="140" y="73">Tasks</tspan>
        </text>
        <text id="01" font-family="AvenirNext-Medium, Avenir Next" font-size="12" font-weight="400" letter-spacing="0.00352564035" fill="#161318">
            <tspan x="152" y="463">01</tspan>
        </text>
        <text id="Blends" font-family="AvenirNext-Medium, Avenir Next" font-size="12" font-weight="400" letter-spacing="0.00352564035" fill="#161318">
            <tspan x="179" y="463">Blends</tspan>
        </text>
        <text id="Blends" font-family="AvenirNext-Medium, Avenir Next" font-size="12" font-weight="400" letter-spacing="0.00352564035" fill="#161318">
            <tspan x="179" y="493">Blends</tspan>
        </text>
        <text id="Blends" font-family="AvenirNext-Medium, Avenir Next" font-size="12" font-weight="400" letter-spacing="0.00352564035" fill="#161318">
            <tspan x="179" y="523">Blends</tspan>
        </text>
        <text id="Blends" font-family="AvenirNext-Medium, Avenir Next" font-size="12" font-weight="400" letter-spacing="0.00352564035" fill="#161318">
            <tspan x="179" y="553">Blends</tspan>
        </text>
        <text id="Blends" font-family="AvenirNext-Medium, Avenir Next" font-size="12" font-weight="400" letter-spacing="0.00352564035" fill="#161318">
            <tspan x="179" y="583">Blends</tspan>
        </text>
        <text id="Blends" font-family="AvenirNext-Medium, Avenir Next" font-size="12" font-weight="400" letter-spacing="0.00352564035" fill="#161318">
            <tspan x="179" y="613">Blends</tspan>
        </text>
        <text id="Blends" font-family="AvenirNext-Medium, Avenir Next" font-size="12" font-weight="400" letter-spacing="0.00352564035" fill="#161318">
            <tspan x="179" y="643">Blends</tspan>
        </text>
        <text id="Blends" font-family="AvenirNext-Medium, Avenir Next" font-size="12" font-weight="400" letter-spacing="0.00352564035" fill="#161318">
            <tspan x="179" y="673">Blends</tspan>
        </text>
        <path d="M145.5,473.5 L950.139826,473.5" id="Path-3" stroke-opacity="0.176092618" stroke="#161318"></path>
        <text id="Lorem-ipsum-dolor-si" font-family="AvenirNext-Medium, Avenir Next" font-size="12" font-weight="400" letter-spacing="0.00352564035" fill="#161318">
            <tspan x="349" y="492">Lorem ipsum dolor sit amet, consectetur adipiscing elit, sed do eiusmod tempor incididunt ut labore et…</tspan>
        </text>
        <text id="01" font-family="AvenirNext-Medium, Avenir Next" font-size="12" font-weight="400" letter-spacing="0.00352564035" fill="#161318">
            <tspan x="152" y="493">01</tspan>
        </text>
        <path d="M145.5,503.5 L950.139826,503.5" id="Path-3" stroke-opacity="0.176092618" stroke="#161318"></path>
        <g id="Tasks-Icon" transform="translate(29.000000, 174.000000)">
            <g id="Page-1">
                <path d="M43.3541773,27.5481298 C43.3541773,39.2817452 33.7333336,48.7938702 21.8645445,48.7938702 C9.99670859,48.7938702 0.375388281,39.2817452 0.375388281,27.5481298 C0.375388281,15.8145144 9.99670859,6.30286058 21.8645445,6.30286058 C33.7333336,6.30286058 43.3541773,15.8145144 43.3541773,27.5481298 Z" id="Stroke-1" stroke="#F0405E" stroke-width="2.57599998"></path>
                <path d="M23.800675,33.6627644 C24.0227531,33.8498125 24.2362531,33.8860913 24.380175,33.8860913 C24.6203625,33.8860913 24.8438703,33.7885625 25.0106672,33.6114087 L31.4590344,26.7448125 C30.6588859,27.2140817 29.8920969,27.6418894 29.1624797,28.0268221 C26.5628312,29.3964663 23.434675,30.1206298 20.1168469,30.1206298 C19.8909562,30.1206298 19.6645891,30.1178029 19.4386984,30.1107356 L23.800675,33.6627644 Z M20.1039797,37.976649 L5.8857375,25.8350144 C4.84158906,24.9520721 4.53563594,23.4684087 5.16469844,22.3121971 C5.66651875,21.3877933 6.63441719,20.8134567 7.69047969,20.8134567 C8.30143281,20.8134567 8.88474531,21.0019183 9.37751094,21.3590529 C9.3779875,21.3590529 10.9029875,22.397476 14.4104875,23.5442644 C16.4463625,24.210476 18.4055109,24.5478221 20.2326516,24.5478221 C22.4715422,24.5478221 24.5703234,24.0394471 26.4722844,23.0373029 C37.4222609,17.2670817 54.4188625,2.28391827 54.5889953,2.13362019 C55.1136906,1.66953365 55.7904094,1.41369712 56.4947687,1.41369712 C57.2691828,1.41369712 57.9940344,1.71429327 58.5358859,2.26036058 C59.6086281,3.34024519 59.6324562,5.05477404 58.5906906,6.16434135 L29.2006047,37.458851 C27.9572531,38.7832644 26.2001672,39.5427644 24.380175,39.5427644 C22.8175266,39.5427644 21.2987219,38.9863317 20.1039797,37.976649 Z" id="Fill-3" fill="#F0405E"></path>
                <path d="M23.18915,31.3338981 C24.0250406,31.2231769 24.8432984,31.0662827 25.6382047,30.8655712 L24.3281344,32.2611288 L23.18915,31.3338981 Z M56.49515,0.000282692308 L56.4946734,0.000282692308 C55.4381344,0.000282692308 54.4221031,0.384273077 53.6348219,1.08110962 C53.4665953,1.22952308 36.5991422,16.0986673 25.8002359,21.7897346 C24.1070094,22.6821 22.2341187,23.1344077 20.2325562,23.1344077 C18.5579156,23.1344077 16.7498375,22.8206192 14.8593141,22.2024654 C11.7120953,21.1734654 10.2795484,20.2533019 10.1799469,20.1882827 C9.44461094,19.6709558 8.58679844,19.4000423 7.69086094,19.4000423 C6.10724375,19.4000423 4.6565875,20.2594269 3.90457187,21.6432058 C2.96050156,23.3808212 3.40465781,25.5971288 4.9615875,26.9140038 L19.1636266,39.0415038 C20.6281031,40.279225 22.4766891,40.9562731 24.3800797,40.9562731 C26.5960953,40.9562731 28.7353844,40.0318692 30.2484703,38.4205231 L59.6380797,7.12554231 C61.2012047,5.46236923 61.1649859,2.88986923 59.5556344,1.26957115 C58.7426187,0.451176923 57.6555797,0.000282692308 56.49515,0.000282692308 L56.49515,0.000282692308 Z M20.1167516,28.7072154 C18.3639547,28.7072154 16.5696969,28.4951962 14.7945016,28.0786962 C14.7916422,28.0777538 14.7883062,28.0772827 14.7854469,28.0772827 C14.7559,28.0772827 14.7392203,28.1145038 14.7640016,28.1357058 L22.891775,34.7540038 C23.3235406,35.1191481 23.8530016,35.2996 24.3796031,35.2996 C24.9938922,35.2996 25.6053219,35.0546 26.0580562,34.5735519 L40.9015484,18.7672827 C40.9244234,18.7427827 40.9039312,18.7102731 40.8772437,18.7102731 C40.8710484,18.7102731 40.8634234,18.7121577 40.856275,18.7173404 C36.6630016,21.8147058 32.2791031,24.7820327 28.4899547,26.7792538 C26.0237437,28.0786962 23.1314859,28.7072154 20.1167516,28.7072154 L20.1167516,28.7072154 Z M56.4946734,2.82720577 C56.8659156,2.82720577 57.2362047,2.96902308 57.5154703,3.25030192 C58.05065,3.78930192 58.0630406,4.64868654 57.5431109,5.20229231 L28.153025,36.4968019 C27.1374703,37.5785712 25.7621109,38.12935 24.3800797,38.12935 C23.1953453,38.12935 22.0058453,37.7241577 21.0331812,36.9019942 L6.82018125,24.7655423 C6.299775,24.3250135 6.09961875,23.5777635 6.42368125,22.9808115 C6.69150937,22.4884558 7.1880875,22.2269654 7.69086094,22.2269654 C7.98442344,22.2269654 8.27989219,22.3155423 8.53342344,22.4997635 C8.55820469,22.5176673 10.1708922,23.6470231 13.9614703,24.8861577 C16.1527047,25.6027827 18.2471969,25.9613308 20.2325562,25.9613308 C22.7135406,25.9613308 25.0248687,25.4020712 27.1450953,24.2844942 C38.2656812,18.4242827 55.3704625,3.33887885 55.5425016,3.18716731 C55.8141422,2.94640769 56.1548844,2.82720577 56.4946734,2.82720577 L56.4946734,2.82720577 Z" id="Fill-5" fill="#F4F4F4"></path>
            </g>
        </g>
        <g id="Profile-Icon" transform="translate(29.000000, 270.000000)" stroke="#EF415E" stroke-width="2.567">
            <g id="Page-1">
                <path d="M43.0009536,21.5 C43.0009536,33.3743014 33.375255,43 21.5004768,43 C9.62617537,43 0,33.3743014 0,21.5 C0,9.62569857 9.62617537,0 21.5004768,0 C33.375255,0 43.0009536,9.62569857 43.0009536,21.5 Z" id="Stroke-1"></path>
                <path d="M25.3413326,18.8679129 C26.6450469,17.6357701 27.3710469,15.7984844 27.0637612,13.8099129 C26.6754755,11.3027701 24.5990469,9.32148435 22.0781898,9.03734149 C18.6320469,8.64862721 15.7014755,11.3464844 15.7014755,14.7163415 C15.7014755,16.3993415 16.4334755,17.9139129 17.5949041,18.9609129 C17.6857612,19.0431986 17.6570469,19.1884844 17.5417612,19.2296272 C10.3966184,21.7727701 10.0040469,30.0819129 10.0006184,30.1736272 C9.98990407,30.4761986 10.1189041,30.7667701 10.3503326,30.9613415 C10.5200469,31.1036272 10.7304755,31.1829129 10.9473326,31.1906272 C11.0270469,31.1936272 11.1076184,31.1867701 11.1873326,31.1700558 C14.0981898,30.5507701 16.1364755,29.3614844 17.5661898,27.9724844 C17.8636184,27.6840558 18.3637612,27.8511986 18.4160469,28.2621986 C18.6611898,30.1907701 19.3670469,32.2843415 20.8417612,34.4070558 C21.0153326,34.6569129 21.3024755,34.8073415 21.6067612,34.8189129 L21.6157612,34.8193415 C21.9277612,34.8279129 22.2260469,34.6869129 22.4180469,34.4400558 C22.4519041,34.3967701 24.3654755,31.8699129 24.8146184,28.2300558 C24.8510469,27.9351986 25.1994755,27.8031986 25.4214755,28.0016272 C26.8824755,29.3074844 28.9250469,30.3986272 31.7814755,30.9244844 C31.8294755,30.9334844 31.8770469,30.9386272 31.9241898,30.9403415 C32.1749041,30.9493415 32.4217612,30.8619129 32.6120469,30.6930558 C32.8383326,30.4920558 32.9596184,30.1980558 32.9403326,29.8959129 C32.9347612,29.8059129 32.3334755,21.7671986 25.4364755,19.2776272 C25.2624755,19.2150558 25.2071898,18.9947701 25.3413326,18.8679129 Z" id="Stroke-3"></path>
            </g>
        </g>
        <g id="Settings-Icon" transform="translate(30.000000, 359.000000)">
            <g id="Page-1">
                <path d="M19.1317079,43.0052577 C13.5759101,43.0052577 8.28202247,40.6545155 4.52939326,36.6131546 C4.49966292,36.5818557 4.52042697,36.5296907 4.56337079,36.5268454 L35.4055281,34.520866 C35.448,34.5184948 35.4753708,34.5673402 35.4508315,34.6019588 C31.7845618,39.8412165 25.7398652,43.0052577 19.1317079,43.0052577 L19.1317079,43.0052577 Z M4.66483146,25.53 C4.67238202,25.5143505 4.68795506,25.5039175 4.70541573,25.5024948 L39.0930337,22.7913402 C39.0949213,22.8491959 39.0958652,22.9008866 39.0958652,22.9430928 C39.0958652,25.3768247 38.7150337,27.6754021 37.9642247,29.7899794 C37.9571461,29.8113196 37.9359101,29.8250722 37.9132584,29.8236495 L3.69222472,27.6403093 C3.65635955,27.6379381 3.63465169,27.6 3.65022472,27.5672784 L4.66483146,25.53 Z M11.6684494,13.2280825 L35.6542247,11.7333196 C35.6721573,11.7323711 35.689618,11.740433 35.6990562,11.7556082 C36.8995955,13.5500825 37.8094382,15.5461031 38.3799775,17.6308041 C38.3894157,17.6644742 38.361573,17.6986186 38.3266517,17.695299 L10.5094382,15.2084536 C10.4716854,15.2046598 10.4509213,15.1634021 10.4707416,15.1316289 L11.628809,13.2517938 C11.6373034,13.237567 11.6519326,13.2290309 11.6684494,13.2280825 L11.6684494,13.2280825 Z M41.6696629,21.6550928 L41.6493708,21.2984742 C41.6309663,20.9423299 41.4426742,19.3531959 41.3714157,18.947732 C40.7763371,15.5859381 39.4035506,12.348866 37.4002921,9.58696907 C37.1355506,9.22276289 36.7098876,9.01410309 36.2554382,9.04682474 L10.8006067,10.6326392 C10.3744719,10.6591959 9.98797753,10.891567 9.76334831,11.2562474 L7.06826966,15.6314639 C6.82759551,16.0217526 6.80588764,16.5092577 7.00975281,16.9189897 C7.21408989,17.3291959 7.61521348,17.6042474 8.07013483,17.6445567 L36.8354157,20.2167629 C36.8962921,20.2224536 36.8958202,20.3120825 36.8344719,20.3168247 L3.72997753,22.9269691 C3.27033708,22.9630103 2.86213483,23.2390103 2.65638202,23.6534845 L0.375168539,28.2368866 C0.177438202,28.6333402 0.191123596,29.103299 0.411033708,29.4874227 C0.63094382,29.8720206 1.02829213,30.1200412 1.46811236,30.1480206 L31.1937303,32.0449278 C31.2560225,32.0487216 31.2560225,32.1411959 31.1937303,32.1454639 L1.74134831,34.0603918 C1.16089888,34.0983299 0.660674157,34.5175464 0.536561798,35.1160206 C0.456808989,35.5001443 0.577617978,35.900866 0.806022472,36.2185979 C5.05038202,42.125567 11.8944944,45.6495464 19.1317079,45.6495464 C27.5954157,45.6495464 35.2493258,41.0495464 39.107191,33.6444948 C39.296427,33.2807629 39.8764045,32.1151134 40.0420449,31.7177113 C41.1604719,29.0335876 41.727236,26.0815258 41.727236,22.9430928 C41.727236,22.6234639 41.6951461,22.0866392 41.6696629,21.6550928 L41.6696629,21.6550928 Z" id="Fill-1" fill="#EF415E"></path>
                <path d="M19.1317079,43.0052577 C13.5759101,43.0052577 8.28202247,40.6545155 4.52939326,36.6131546 C4.49966292,36.5818557 4.52042697,36.5296907 4.56337079,36.5268454 L35.4055281,34.520866 C35.448,34.5184948 35.4753708,34.5673402 35.4508315,34.6019588 C31.7845618,39.8412165 25.7398652,43.0052577 19.1317079,43.0052577 Z M4.66483146,25.53 C4.67238202,25.5143505 4.68795506,25.5039175 4.70541573,25.5024948 L39.0930337,22.7913402 C39.0949213,22.8491959 39.0958652,22.9008866 39.0958652,22.9430928 C39.0958652,25.3768247 38.7150337,27.6754021 37.9642247,29.7899794 C37.9571461,29.8113196 37.9359101,29.8250722 37.9132584,29.8236495 L3.69222472,27.6403093 C3.65635955,27.6379381 3.63465169,27.6 3.65022472,27.5672784 L4.66483146,25.53 Z M11.6684494,13.2280825 L35.6542247,11.7333196 C35.6721573,11.7323711 35.689618,11.740433 35.6990562,11.7556082 C36.8995955,13.5500825 37.8094382,15.5461031 38.3799775,17.6308041 C38.3894157,17.6644742 38.361573,17.6986186 38.3266517,17.695299 L10.5094382,15.2084536 C10.4716854,15.2046598 10.4509213,15.1634021 10.4707416,15.1316289 L11.628809,13.2517938 C11.6373034,13.237567 11.6519326,13.2290309 11.6684494,13.2280825 Z M41.6696629,21.6550928 L41.6493708,21.2984742 C41.6309663,20.9423299 41.4426742,19.3531959 41.3714157,18.947732 C40.7763371,15.5859381 39.4035506,12.348866 37.4002921,9.58696907 C37.1355506,9.22276289 36.7098876,9.01410309 36.2554382,9.04682474 L10.8006067,10.6326392 C10.3744719,10.6591959 9.98797753,10.891567 9.76334831,11.2562474 L7.06826966,15.6314639 C6.82759551,16.0217526 6.80588764,16.5092577 7.00975281,16.9189897 C7.21408989,17.3291959 7.61521348,17.6042474 8.07013483,17.6445567 L36.8354157,20.2167629 C36.8962921,20.2224536 36.8958202,20.3120825 36.8344719,20.3168247 L3.72997753,22.9269691 C3.27033708,22.9630103 2.86213483,23.2390103 2.65638202,23.6534845 L0.375168539,28.2368866 C0.177438202,28.6333402 0.191123596,29.103299 0.411033708,29.4874227 C0.63094382,29.8720206 1.02829213,30.1200412 1.46811236,30.1480206 L31.1937303,32.0449278 C31.2560225,32.0487216 31.2560225,32.1411959 31.1937303,32.1454639 L1.74134831,34.0603918 C1.16089888,34.0983299 0.660674157,34.5175464 0.536561798,35.1160206 C0.456808989,35.5001443 0.577617978,35.900866 0.806022472,36.2185979 C5.05038202,42.125567 11.8944944,45.6495464 19.1317079,45.6495464 C27.5954157,45.6495464 35.2493258,41.0495464 39.107191,33.6444948 C39.296427,33.2807629 39.8764045,32.1151134 40.0420449,31.7177113 C41.1604719,29.0335876 41.727236,26.0815258 41.727236,22.9430928 C41.727236,22.6234639 41.6951461,22.0866392 41.6696629,21.6550928 Z" id="Stroke-3" stroke="#F4F4F4" stroke-width="0.5" stroke-linejoin="round"></path>
                <path d="M17.5348584,2.9481732 C18.0770831,2.9040701 18.6122292,2.88130722 19.1318022,2.88130722 C21.6546337,2.88130722 24.1014876,3.34557526 26.3893079,4.24518351 L17.2116,3.50870928 L17.5348584,2.9481732 Z M14.9242517,5.97800825 L32.0446787,7.3518433 C32.0796,7.35468866 32.1149933,7.35563711 32.1499146,7.35563711 C32.688836,7.35563711 33.1786787,7.02320412 33.3759371,6.51103918 C33.586409,5.96615258 33.4151056,5.34681237 32.9554652,4.98829691 C28.9635775,1.88021443 24.1831281,0.237018557 19.1318022,0.237018557 C18.3073753,0.237018557 17.4508584,0.286812371 16.5877348,0.384028866 C16.1729258,0.43097732 15.8053079,0.67283299 15.5962517,1.03561649 L13.8898247,3.99763711 C13.6637798,4.39077113 13.6538697,4.87258557 13.8638697,5.27425567 C14.0733978,5.67592577 14.4740494,5.94196701 14.9242517,5.97800825 L14.9242517,5.97800825 Z" id="Fill-5" fill="#EF415E"></path>
                <path d="M17.5348584,2.9481732 C18.0770831,2.9040701 18.6122292,2.88130722 19.1318022,2.88130722 C21.6546337,2.88130722 24.1014876,3.34557526 26.3893079,4.24518351 L17.2116,3.50870928 L17.5348584,2.9481732 Z M14.9242517,5.97800825 L32.0446787,7.3518433 C32.0796,7.35468866 32.1149933,7.35563711 32.1499146,7.35563711 C32.688836,7.35563711 33.1786787,7.02320412 33.3759371,6.51103918 C33.586409,5.96615258 33.4151056,5.34681237 32.9554652,4.98829691 C28.9635775,1.88021443 24.1831281,0.237018557 19.1318022,0.237018557 C18.3073753,0.237018557 17.4508584,0.286812371 16.5877348,0.384028866 C16.1729258,0.43097732 15.8053079,0.67283299 15.5962517,1.03561649 L13.8898247,3.99763711 C13.6637798,4.39077113 13.6538697,4.87258557 13.8638697,5.27425567 C14.0733978,5.67592577 14.4740494,5.94196701 14.9242517,5.97800825 Z" id="Stroke-7" stroke="#F4F4F4" stroke-width="0.5" stroke-linejoin="round"></path>
            </g>
        </g>
        <g id="Server-Icon" transform="translate(30.000000, 444.000000)">
            <g id="Page-1">
                <path d="M39.9179368,33.2156532 C39.9179368,44.0077457 31.0669895,52.7559538 20.1490947,52.7559538 C9.23077895,52.7559538 0.380252632,44.0077457 0.380252632,33.2156532 C0.380252632,22.4239769 9.23077895,13.6753526 20.1490947,13.6753526 C31.0669895,13.6753526 39.9179368,22.4239769 39.9179368,33.2156532 Z" id="Stroke-1" stroke="#EF415E" stroke-width="2.567"></path>
                <path d="M22.4364211,35.9155699 C22.8208421,36.5369341 22.8347368,37.3176971 22.4738947,37.9536277 L18.652,44.6596162 L27.1248421,36.3392462 L20.5854737,25.4214659 C20.3303158,24.996541 20.2423158,24.4950382 20.3387368,24.0093503 L22.3,14.0912462 L15.7437895,25.1005873 L22.4364211,35.9155699 Z M9.66884211,58.3342058 C9.21873684,58.3342058 8.79221053,58.1914543 8.43431579,57.9221827 C7.63094737,57.3170497 7.39810526,56.2037549 7.89326316,55.3326798 L18.3362105,37.0080555 L11.6301053,26.171015 C11.2364211,25.5355006 11.2301053,24.7410035 11.6132632,24.0984139 L24.8275789,1.90826358 C25.1917895,1.29605549 25.8650526,0.915662428 26.5842105,0.915662428 C26.8313684,0.915662428 27.0738947,0.959778035 27.3050526,1.04676069 C28.236,1.39593988 28.7736842,2.35025202 28.5825263,3.31580116 L24.4856842,24.0297434 L31.4385263,35.6358936 C31.9147368,36.4308069 31.7837895,37.4400555 31.1210526,38.0905526 L11.1050526,57.7490497 C10.7206316,58.1261133 10.2103158,58.3342058 9.66884211,58.3342058 L9.66884211,58.3342058 Z" id="Fill-7" fill="#EF415E"></path>
                <path d="M16.6942316,25.0927214 L20.5864421,18.5561202 L19.5388632,23.8545711 C19.4045474,24.5354497 19.5274947,25.2371376 19.8841263,25.8322821 L26.1001263,36.2094382 L22.2453895,39.995889 L23.1830737,38.3498775 C23.6896,37.4592416 23.6698105,36.3655075 23.1312842,35.4952647 L16.6942316,25.0927214 Z M26.5834947,0.110386127 L26.5834947,0.110386127 C25.5771789,0.110386127 24.6344421,0.64310289 24.1245474,1.50002775 L10.9106526,23.6905942 C10.3746526,24.5895538 10.3843368,25.7011838 10.9350737,26.5914035 L17.3910737,37.0247445 L7.18391579,54.9369295 C6.49002105,56.1576 6.81549474,57.7157965 7.94138947,58.5635653 C8.43528421,58.9348023 9.04875789,59.1395653 9.66854737,59.1395653 C10.4268632,59.1395653 11.1409684,58.848652 11.6790737,58.3205133 L31.6954947,38.6620162 C32.6234947,37.7509873 32.8062316,36.3380393 32.1392842,35.2255769 L25.3451789,23.8832879 L29.3822316,3.4702474 C29.6496,2.11806243 28.8971789,0.782108671 27.5944421,0.293507514 C27.2702316,0.171981503 26.9304421,0.110386127 26.5834947,0.110386127 L26.5834947,0.110386127 Z M24.0133895,9.62645549 L14.7936,25.1085364 L21.7405474,36.3359584 C21.9721263,36.7092763 21.9805474,37.1770682 21.7632842,37.559126 L15.0584421,49.324259 L28.1489684,36.4683052 L21.2858105,25.0111491 C21.1333895,24.7560277 21.0807579,24.4547098 21.1384421,24.1642127 L24.0133895,9.62645549 L24.0133895,9.62645549 Z M26.5834947,1.72143815 C26.7283368,1.72143815 26.8748632,1.74640925 27.0163368,1.79968092 C27.5733895,2.00860578 27.8967579,2.58377341 27.7826526,3.16143815 L23.6264421,24.1762821 L30.7376,36.0462936 C31.0222316,36.5224092 30.9443368,37.1292069 30.5468632,37.5187561 L10.5304421,57.1776694 C10.2938105,57.4099006 9.98223158,57.5289295 9.66854737,57.5289295 C9.40917895,57.5289295 9.14854737,57.4473572 8.92875789,57.2817156 C8.44328421,56.9163052 8.30475789,56.2533225 8.60412632,55.7272647 L19.2811789,36.9914497 L12.3253895,25.7507098 C12.0896,25.3703168 12.0858105,24.8925364 12.3148632,24.5075653 L25.5296,2.31658266 C25.7548632,1.93868671 26.1607579,1.72143815 26.5834947,1.72143815 L26.5834947,1.72143815 Z" id="Fill-9" fill="#F4F4F4"></path>
            </g>
        </g>
        <text id="Lorem-ipsum-dolor-si" font-family="AvenirNext-Medium, Avenir Next" font-size="12" font-weight="400" letter-spacing="0.00352564035" fill="#161318">
            <tspan x="349" y="522">Lorem ipsum dolor sit amet, consectetur adipiscing elit, sed do eiusmod tempor incididunt ut labore et…</tspan>
        </text>
        <text id="01" font-family="AvenirNext-Medium, Avenir Next" font-size="12" font-weight="400" letter-spacing="0.00352564035" fill="#161318">
            <tspan x="152" y="523">01</tspan>
        </text>
        <path d="M145.5,533.5 L950.139826,533.5" id="Path-3" stroke-opacity="0.176092618" stroke="#161318"></path>
        <text id="Lorem-ipsum-dolor-si" font-family="AvenirNext-Medium, Avenir Next" font-size="12" font-weight="400" letter-spacing="0.00352564035" fill="#161318">
            <tspan x="349" y="552">Lorem ipsum dolor sit amet, consectetur adipiscing elit, sed do eiusmod tempor incididunt ut labore et…</tspan>
        </text>
        <text id="01" font-family="AvenirNext-Medium, Avenir Next" font-size="12" font-weight="400" letter-spacing="0.00352564035" fill="#161318">
            <tspan x="152" y="553">01</tspan>
        </text>
        <path d="M145.5,563.5 L950.139826,563.5" id="Path-3" stroke-opacity="0.176092618" stroke="#161318"></path>
        <text id="Lorem-ipsum-dolor-si" font-family="AvenirNext-Medium, Avenir Next" font-size="12" font-weight="400" letter-spacing="0.00352564035" fill="#161318">
            <tspan x="349" y="582">Lorem ipsum dolor sit amet, consectetur adipiscing elit, sed do eiusmod tempor incididunt ut labore et…</tspan>
        </text>
        <text id="01" font-family="AvenirNext-Medium, Avenir Next" font-size="12" font-weight="400" letter-spacing="0.00352564035" fill="#161318">
            <tspan x="152" y="583">01</tspan>
        </text>
        <path d="M145.5,593.5 L950.139826,593.5" id="Path-3" stroke-opacity="0.176092618" stroke="#161318"></path>
        <text id="Lorem-ipsum-dolor-si" font-family="AvenirNext-Medium, Avenir Next" font-size="12" font-weight="400" letter-spacing="0.00352564035" fill="#161318">
            <tspan x="349" y="612">Lorem ipsum dolor sit amet, consectetur adipiscing elit, sed do eiusmod tempor incididunt ut labore et…</tspan>
        </text>
        <text id="01" font-family="AvenirNext-Medium, Avenir Next" font-size="12" font-weight="400" letter-spacing="0.00352564035" fill="#161318">
            <tspan x="152" y="613">01</tspan>
        </text>
        <path d="M145.5,623.5 L950.139826,623.5" id="Path-3" stroke-opacity="0.176092618" stroke="#161318"></path>
        <text id="Lorem-ipsum-dolor-si" font-family="AvenirNext-Medium, Avenir Next" font-size="12" font-weight="400" letter-spacing="0.00352564035" fill="#161318">
            <tspan x="349" y="642">Lorem ipsum dolor sit amet, consectetur adipiscing elit, sed do eiusmod tempor incididunt ut labore et…</tspan>
        </text>
        <text id="01" font-family="AvenirNext-Medium, Avenir Next" font-size="12" font-weight="400" letter-spacing="0.00352564035" fill="#161318">
            <tspan x="152" y="643">01</tspan>
        </text>
        <path d="M145.5,653.5 L950.139826,653.5" id="Path-3" stroke-opacity="0.176092618" stroke="#161318"></path>
        <text id="Lorem-ipsum-dolor-si" font-family="AvenirNext-Medium, Avenir Next" font-size="12" font-weight="400" letter-spacing="0.00352564035" fill="#161318">
            <tspan x="349" y="672">Lorem ipsum dolor sit amet, consectetur adipiscing elit, sed do eiusmod tempor incididunt ut labore et…</tspan>
        </text>
        <text id="01" font-family="AvenirNext-Medium, Avenir Next" font-size="12" font-weight="400" letter-spacing="0.00352564035" fill="#161318">
            <tspan x="152" y="673">01</tspan>
        </text>
        <path d="M145.5,683.5 L950.139826,683.5" id="Path-3" stroke-opacity="0.176092618" stroke="#161318"></path>
        <text id="Input-SKU" font-family="AvenirNext-Medium, Avenir Next" font-size="9" font-weight="400" letter-spacing="0.00352564035" fill="#161318">
            <tspan x="153" y="142">Input SKU</tspan>
        </text>
        <rect id="Rectangle-4" stroke="#F0405E" x="153.5" y="149.5" width="251" height="28"></rect>
        <g id="Submit-Button" transform="translate(321.000000, 306.000000)">
            <path d="M0,2.99428189 C0,1.34058566 1.33734963,0 3.00304844,0 L79.9969516,0 C81.6554894,0 83,1.3405687 83,2.99428189 L83,26.0057181 C83,27.6594143 81.6626504,29 79.9969516,29 L3.00304844,29 C1.34451058,29 0,27.6594313 0,26.0057181 L0,2.99428189 Z" id="Rectangle-4" fill="#F0405E"></path>
            <text id="Submit" font-family="AvenirNext-Medium, Avenir Next" font-size="12" font-weight="400" letter-spacing="0.00352564035" fill="#EFEFEF">
                <tspan x="21" y="19">Submit</tspan>
            </text>
        </g>
        <circle id="Oval" stroke="#979797" fill="#D8D8D8" cx="56" cy="64" r="37"></circle>
        <path d="M454,78.5 L956.366898,78.5" id="Path-2" stroke="#EDBCC6"></path>
        <path d="M139.5,412.5 L956.003827,412.5" id="Path-5" stroke="#EDBCC6"></path>
        <g id="Group" transform="translate(48.000000, 695.000000)">
            <rect id="Rectangle-2" stroke="#F0405E" x="0.5" y="0.5" width="12" height="12"></rect>
            <g id="Combined-Shape">
                <use fill="#F0405E" fill-rule="evenodd" xlink:href="#path-3"></use>
                <path stroke="#F4F4F4" stroke-width="0.75" d="M5.375,4.375 L5.375,8.625 L11.375,8.625 L11.375,10.25 L16.375,6.5 L11.375,2.75 L11.375,4.375 L5.375,4.375 Z"></path>
            </g>
        </g>
    </g>
</svg>