
<svg width="16px" height="12px" viewBox="0 0 16 12" version="1.1" xmlns="http://www.w3.org/2000/svg" xmlns:xlink="http://www.w3.org/1999/xlink">
    <!-- Generator: Sketch 49.1 (51147) - http://www.bohemiancoding.com/sketch -->
    <desc>Created with Sketch.</desc>
    <defs></defs>
    <g id="Page-1" stroke="none" stroke-width="1" fill="none" fill-rule="evenodd" fill-opacity="0.5">
        <g id="MAIN-THEME" transform="translate(-115.000000, -1001.000000)" fill="#000000">
            <g id="SIDEBAR" transform="translate(37.000000, 49.000000)">
                <g id="BOTTOM-ICONS" transform="translate(14.000000, 950.000000)">
                    <g id="logout" transform="translate(64.000000, 2.000000)">
                        <g id="sign-out-alt">
                            <path d="M15.7785604,6.53082988 L10.4449625,11.779958 C9.96874845,12.2486302 9.14331068,11.9205597 9.14331068,11.2487962 L9.14331068,8.24929445 L4.82563619,8.24929445 C4.40339303,8.24929445 4.06369364,7.91497498 4.06369364,7.499419 L4.06369364,4.49991721 C4.06369364,4.08436124 4.40339303,3.75004177 4.82563619,3.75004177 L9.14331068,3.75004177 L9.14331068,0.750539982 C9.14331068,0.0819010419 9.96557369,-0.249293947 10.4449625,0.219378207 L15.7785604,5.46850633 C16.0738132,5.76220755 16.0738132,6.23712866 15.7785604,6.53082988 Z M6.09554045,11.623734 L6.09554045,10.3739415 C6.09554045,10.1677258 5.92410338,9.99900382 5.71456918,9.99900382 L3.04777023,9.99900382 C2.48583759,9.99900382 2.03184682,9.55220303 2.03184682,8.99916989 L2.03184682,3.00016632 C2.03184682,2.44713318 2.48583759,2.00033239 3.04777023,2.00033239 L5.71456918,2.00033239 C5.92410338,2.00033239 6.09554045,1.83161042 6.09554045,1.62539467 L6.09554045,0.375602258 C6.09554045,0.169386511 5.92410338,0.000664535223 5.71456918,0.000664535223 L3.04777023,0.000664535223 C1.36514708,0.000664535223 0,1.34419138 0,3.00016632 L0,8.99916989 C0,10.6551448 1.36514708,11.9986717 3.04777023,11.9986717 L5.71456918,11.9986717 C5.92410338,11.9986717 6.09554045,11.8299497 6.09554045,11.623734 Z" id="Shape" fill-rule="nonzero"></path>
                        </g>
                    </g>
                </g>
            </g>
        </g>
    </g>
</svg>