
<svg width="57px" height="66px" viewBox="0 0 57 66" version="1.1" xmlns="http://www.w3.org/2000/svg" xmlns:xlink="http://www.w3.org/1999/xlink">
    <!-- Generator: Sketch 49.1 (51147) - http://www.bohemiancoding.com/sketch -->
    <desc>Created with Sketch.</desc>
    <defs>
        <filter x="-12.4%" y="-11.9%" width="124.7%" height="133.4%" filterUnits="objectBoundingBox" id="filter-1">
            <feOffset dx="0" dy="2" in="SourceAlpha" result="shadowOffsetOuter1"></feOffset>
            <feGaussianBlur stdDeviation="2" in="shadowOffsetOuter1" result="shadowBlurOuter1"></feGaussianBlur>
            <feColorMatrix values="0 0 0 0 0   0 0 0 0 0   0 0 0 0 0  0 0 0 0.25 0" type="matrix" in="shadowBlurOuter1" result="shadowMatrixOuter1"></feColorMatrix>
            <feMerge>
                <feMergeNode in="shadowMatrixOuter1"></feMergeNode>
                <feMergeNode in="SourceGraphic"></feMergeNode>
            </feMerge>
        </filter>
    </defs>
    <g id="Page-1" stroke="none" stroke-width="1" fill="none" fill-rule="evenodd">
        <g id="MAIN-THEME" transform="translate(-63.000000, -620.000000)">
            <g id="SIDEBAR" transform="translate(37.000000, 49.000000)">
                <g id="SERVER" transform="translate(18.000000, 571.000000)">
                    <g id="server">
                        <text id="SERVER" font-family="Helvetica" font-size="10" font-weight="normal" letter-spacing="0.492000014" fill="#085E7E">
                            <tspan x="14.8498448" y="64.0079118">SERVER</tspan>
                        </text>
                        <g id="Group" filter="url(#filter-1)" stroke-width="1" fill-rule="evenodd" transform="translate(8.534447, 0.886137)"></g>
                        <path d="M41.0820581,11.1958394 C41.0820581,9.00955757 39.1608925,7.23008119 36.7994776,7.23008119 C34.4380628,7.23008119 32.5168972,9.00955757 32.5168972,11.1958394 C32.5168972,13.3813282 34.4380628,15.1600116 36.7994776,15.1600116 C39.1608925,15.1600116 41.0820581,13.3813282 41.0820581,11.1958394 L41.0820581,11.1958394 Z M34.2299294,11.1958394 C34.2299294,9.88343589 35.3828,8.81606726 36.7994776,8.81606726 C38.2161553,8.81606726 39.3690259,9.88343589 39.3690259,11.1958394 C39.3690259,12.5074499 38.2161553,13.5740255 36.7994776,13.5740255 C35.3828,13.5740255 34.2299294,12.5074499 34.2299294,11.1958394 L34.2299294,11.1958394 Z" id="Shape" fill="#085E7E" fill-rule="evenodd"></path>
                        <path d="M36.7789213,34.6533664 L37.4435777,33.901609 C37.908666,33.3758547 48.8283896,20.9353799 48.7907029,12.7960993 C48.7607249,6.22932397 43.3818038,0.886136878 36.7994776,0.886136878 C30.1871734,0.886136878 24.8082523,6.23011697 24.8082523,12.7992713 C24.8082523,20.9353799 35.6551721,33.3734757 36.1168343,33.8984371 L36.7789213,34.6533664 L36.7789213,34.6533664 Z M36.7994776,2.47212296 C42.4413491,2.47212296 47.0519753,7.10637427 47.0776707,12.8032363 C47.1076488,19.2724735 39.1634621,29.2681507 36.7832038,32.1157887 C34.4157934,29.2649788 26.5212845,19.2700945 26.5212845,12.7992713 C26.5212845,7.10478829 31.1319107,2.47212296 36.7994776,2.47212296 L36.7994776,2.47212296 Z" id="Shape" fill="#085E7E" fill-rule="evenodd"></path>
                        <polygon id="Shape" fill="#085E7E" fill-rule="evenodd" points="46.2211547 24.675928 46.2211547 26.2619141 53.4235985 26.2619141 61.9031078 40.5357888 11.6958475 40.5357888 20.1753568 26.2619141 27.3778006 26.2619141 27.3778006 24.675928 19.1629548 24.675928 8.79911006 42.1217749 64.7998452 42.1217749 54.4360005 24.675928"></polygon>
                    </g>
                </g>
            </g>
        </g>
    </g>
</svg>