
<svg width="53px" height="65px" viewBox="0 0 53 65" version="1.1" xmlns="http://www.w3.org/2000/svg" xmlns:xlink="http://www.w3.org/1999/xlink">
    <!-- Generator: Sketch 49.1 (51147) - http://www.bohemiancoding.com/sketch -->
    <desc>Created with Sketch.</desc>
    <defs>
        <filter x="-15.6%" y="-11.9%" width="131.4%" height="133.6%" filterUnits="objectBoundingBox" id="filter-1">
            <feOffset dx="0" dy="2" in="SourceAlpha" result="shadowOffsetOuter1"></feOffset>
            <feGaussianBlur stdDeviation="2" in="shadowOffsetOuter1" result="shadowBlurOuter1"></feGaussianBlur>
            <feColorMatrix values="0 0 0 0 0   0 0 0 0 0   0 0 0 0 0  0 0 0 0.25 0" type="matrix" in="shadowBlurOuter1" result="shadowMatrixOuter1"></feColorMatrix>
            <feMerge>
                <feMergeNode in="shadowMatrixOuter1"></feMergeNode>
                <feMergeNode in="SourceGraphic"></feMergeNode>
            </feMerge>
        </filter>
        <path d="M42.0074805,13.9364231 L46.3636358,9.89760341 L39.82315,3.83454345 L35.4669947,7.87271914 L32.1807722,6.85705677 L32.1807722,0.880943182 L22.4541096,0.880943182 L22.4541096,6.85705677 L19.1678872,7.87207509 L14.8117319,3.83454345 L8.27124604,9.89760341 L12.6274014,13.9364231 L11.5317623,16.9821222 L5.08506928,16.9821222 L5.08506928,25.9987824 L11.5317623,25.9987824 L12.6274014,29.0444814 L8.27124604,33.0833011 L14.8117319,39.1463611 L19.1678872,35.1081854 L22.4541096,36.1238478 L22.4541096,42.0999614 L32.1807722,42.0999614 L32.1807722,36.1238478 L35.4669947,35.1088295 L39.82315,39.1470051 L46.3636358,33.0833011 L42.0074805,29.0444814 L43.1031195,25.9987824 L49.5498126,25.9987824 L49.5498126,16.9821222 L43.1031195,16.9821222 L42.0074805,13.9364231 L42.0074805,13.9364231 Z M48.1602893,24.7106881 L42.1012733,24.7106881 L40.4178659,29.393555 L44.39885,33.0833011 L39.82315,37.3249957 L35.8421659,33.6346055 L30.791249,35.1951318 L30.791249,40.811867 L23.8436329,40.811867 L23.8436329,35.1951318 L18.7927159,33.6339615 L14.8117319,37.3249957 L10.2360319,33.0833011 L14.2170159,29.393555 L12.5336085,24.7106881 L6.47459251,24.7106881 L6.47459251,18.2702165 L12.5336085,18.2702165 L14.2170159,13.5873496 L10.2360319,9.89760341 L14.8117319,5.65590882 L18.7927159,9.34629904 L23.8436329,7.78577277 L23.8436329,2.1690375 L30.791249,2.1690375 L30.791249,7.78577277 L35.8421659,9.34694309 L39.82315,5.65590882 L44.39885,9.89760341 L40.4178659,13.5873496 L42.1012733,18.2702165 L48.1602893,18.2702165 L48.1602893,24.7106881 L48.1602893,24.7106881 Z" id="path-2"></path>
        <filter x="-16.9%" y="-18.2%" width="133.7%" height="136.4%" filterUnits="objectBoundingBox" id="filter-3">
            <feGaussianBlur stdDeviation="1.5" in="SourceAlpha" result="shadowBlurInner1"></feGaussianBlur>
            <feOffset dx="10" dy="12" in="shadowBlurInner1" result="shadowOffsetInner1"></feOffset>
            <feComposite in="shadowOffsetInner1" in2="SourceAlpha" operator="arithmetic" k2="-1" k3="1" result="shadowInnerInner1"></feComposite>
            <feColorMatrix values="0 0 0 0 0.17254902   0 0 0 0 0.529411765   0 0 0 0 0.411764706  0 0 0 1 0" type="matrix" in="shadowInnerInner1"></feColorMatrix>
        </filter>
    </defs>
    <g id="Page-1" stroke="none" stroke-width="1" fill="none" fill-rule="evenodd">
        <g id="MAIN-THEME" transform="translate(-64.000000, -734.000000)">
            <g id="SIDEBAR" transform="translate(37.000000, 49.000000)">
                <g id="SETTINGS" transform="translate(27.000000, 685.000000)">
                    <g id="settings">
                        <text id="SETTINGS" font-family="Helvetica" font-size="10" font-weight="normal" letter-spacing="0.492000014" fill="#2C8769">
                            <tspan x="0.108134332" y="64">SETTINGS</tspan>
                        </text>
                        <g id="basic-gear" stroke-width="1" fill-rule="evenodd" transform="translate(5.085069, 0.880943)">
                            <g id="Layer_1" filter="url(#filter-1)">
                                <g id="Group"></g>
                            </g>
                        </g>
                        <g id="Shape">
                            <use fill="#2C8769" fill-rule="evenodd" xlink:href="#path-2"></use>
                            <use fill="black" fill-opacity="1" filter="url(#filter-3)" xlink:href="#path-2"></use>
                        </g>
                        <path d="M27.3174409,16.9821222 C24.6356611,16.9821222 22.4541096,19.0050743 22.4541096,21.4904523 C22.4541096,23.9758303 24.6356611,25.9987824 27.3174409,25.9987824 C29.9992208,25.9987824 32.1807722,23.9758303 32.1807722,21.4904523 C32.1807722,19.0050743 29.9992208,16.9821222 27.3174409,16.9821222 L27.3174409,16.9821222 Z M27.3174409,24.7106881 C25.4019832,24.7106881 23.8436329,23.2660903 23.8436329,21.4904523 C23.8436329,19.7148143 25.4019832,18.2702165 27.3174409,18.2702165 C29.2328987,18.2702165 30.791249,19.7148143 30.791249,21.4904523 C30.791249,23.2660903 29.2328987,24.7106881 27.3174409,24.7106881 L27.3174409,24.7106881 Z" id="Shape" fill="#2C8769" fill-rule="evenodd"></path>
                    </g>
                </g>
            </g>
        </g>
    </g>
</svg>