
<svg width="53px" height="64px" viewBox="0 0 53 64" version="1.1" xmlns="http://www.w3.org/2000/svg" xmlns:xlink="http://www.w3.org/1999/xlink">
    <!-- Generator: Sketch 49.1 (51147) - http://www.bohemiancoding.com/sketch -->
    <desc>Created with Sketch.</desc>
    <defs></defs>
    <g id="Page-1" stroke="none" stroke-width="1" fill="none" fill-rule="evenodd">
        <g id="MAIN-THEME" transform="translate(-65.000000, -276.000000)" fill="#772E39">
            <g id="SIDEBAR" transform="translate(37.000000, 49.000000)">
                <g id="TASKS" transform="translate(18.000000, 227.000000)">
                    <g id="Tasks">
                        <text font-family="Helvetica" font-size="10" font-weight="normal" letter-spacing="0.492000014">
                            <tspan x="19.7790921" y="62.6666667">TASKS</tspan>
                        </text>
                        <g id="tasks" transform="translate(10.000000, 0.000000)" fill-rule="evenodd" stroke-width="1">
                            <g id="Group" transform="translate(0.310345, 0.888889)">
                                <path d="M43.3766164,0 L36.8292026,0 L36.8292026,3.10288066 L15.5501078,3.10288066 L15.5501078,0 L9.00269397,0 L9.00269397,3.10288066 L0,3.10288066 L0,41.8888889 L52.3793103,41.8888889 L52.3793103,3.10288066 L43.3766164,3.10288066 L43.3766164,0 L43.3766164,0 Z M38.466056,1.55144033 L41.7397629,1.55144033 L41.7397629,6.20576132 L38.466056,6.20576132 L38.466056,1.55144033 L38.466056,1.55144033 Z M10.6395474,1.55144033 L13.9132543,1.55144033 L13.9132543,6.20576132 L10.6395474,6.20576132 L10.6395474,1.55144033 L10.6395474,1.55144033 Z M1.63685345,40.3374486 L1.63685345,10.8600823 L50.7424569,10.8600823 L50.7424569,40.3374486 L1.63685345,40.3374486 L1.63685345,40.3374486 Z M50.7424569,4.65432099 L50.7424569,9.30864198 L1.63685345,9.30864198 L1.63685345,4.65432099 L9.00269397,4.65432099 L9.00269397,7.75720165 L15.5501078,7.75720165 L15.5501078,4.65432099 L36.8292026,4.65432099 L36.8292026,7.75720165 L43.3766164,7.75720165 L43.3766164,4.65432099 L50.7424569,4.65432099 L50.7424569,4.65432099 Z" id="Shape"></path>
                                <path d="M7.48275862,23.6296296 L17.1034483,23.6296296 L17.1034483,13.962963 L7.48275862,13.962963 L7.48275862,23.6296296 L7.48275862,23.6296296 Z M9.0862069,15.5740741 L15.5,15.5740741 L15.5,22.0185185 L9.0862069,22.0185185 L9.0862069,15.5740741 L9.0862069,15.5740741 Z" id="Shape"></path>
                                <path d="M7.48275862,37.5925926 L17.1034483,37.5925926 L17.1034483,27.9259259 L7.48275862,27.9259259 L7.48275862,37.5925926 L7.48275862,37.5925926 Z M9.0862069,29.537037 L15.5,29.537037 L15.5,35.9814815 L9.0862069,35.9814815 L9.0862069,29.537037 L9.0862069,29.537037 Z" id="Shape"></path>
                                <path d="M35.2758621,23.6296296 L44.8965517,23.6296296 L44.8965517,13.962963 L35.2758621,13.962963 L35.2758621,23.6296296 L35.2758621,23.6296296 Z M36.8793103,15.5740741 L43.2931034,15.5740741 L43.2931034,22.0185185 L36.8793103,22.0185185 L36.8793103,15.5740741 L36.8793103,15.5740741 Z" id="Shape"></path>
                                <path d="M35.2758621,37.5925926 L44.8965517,37.5925926 L44.8965517,27.9259259 L35.2758621,27.9259259 L35.2758621,37.5925926 L35.2758621,37.5925926 Z M36.8793103,29.537037 L43.2931034,29.537037 L43.2931034,35.9814815 L36.8793103,35.9814815 L36.8793103,29.537037 L36.8793103,29.537037 Z" id="Shape"></path>
                                <path d="M21.3793103,23.6296296 L31,23.6296296 L31,13.962963 L21.3793103,13.962963 L21.3793103,23.6296296 L21.3793103,23.6296296 Z M22.9827586,15.5740741 L29.3965517,15.5740741 L29.3965517,22.0185185 L22.9827586,22.0185185 L22.9827586,15.5740741 L22.9827586,15.5740741 Z" id="Shape"></path>
                                <path d="M21.3793103,37.5925926 L31,37.5925926 L31,27.9259259 L21.3793103,27.9259259 L21.3793103,37.5925926 L21.3793103,37.5925926 Z M22.4482759,30.0740741 L28.862069,30.0740741 L28.862069,36.5185185 L22.4482759,36.5185185 L22.4482759,30.0740741 L22.4482759,30.0740741 Z" id="Shape"></path>
                            </g>
                        </g>
                    </g>
                </g>
            </g>
        </g>
    </g>
</svg>