<svg width="14px" height="12px" viewBox="0 0 14 12" version="1.1" xmlns="http://www.w3.org/2000/svg" xmlns:xlink="http://www.w3.org/1999/xlink">
    <!-- Generator: Sketch 50.2 (55047) - http://www.bohemiancoding.com/sketch -->
    <desc>Created with Sketch.</desc>
    <defs></defs>
    <g id="Page-1" stroke="none" stroke-width="1" fill="none" fill-rule="evenodd">
        <g id="Artboard" transform="translate(-866.000000, -401.000000)" fill="#6D6E70" fill-rule="nonzero">
            <g id="Actions-Icons_2" transform="translate(866.000000, 401.000000)">
                <path d="M11.8695652,0 C10.6965633,0 9.73913043,0.820656887 9.73913043,1.82608696 C9.73913043,2.30686643 9.9595863,2.74407052 10.3163212,3.07082191 L7.76859726,5.73913043 L4.236498,5.73913043 C4.08761896,4.8567493 3.1998607,4.17391304 2.13043478,4.17391304 C0.957433035,4.17391304 0,4.99456983 0,6 C0,7.00543017 0.957433035,7.82608696 2.13043478,7.82608696 C3.1998607,7.82608696 4.08761896,7.1432507 4.236498,6.26086957 L7.76146396,6.26086957 L10.2063518,9.03668478 C9.91464783,9.34920861 9.73913043,9.74432791 9.73913043,10.173913 C9.73913043,11.1793432 10.6965633,12 11.8695652,12 C13.0425671,12 14,11.1793432 14,10.173913 C14,9.16848287 13.0425671,8.34782609 11.8695652,8.34782609 C11.4176839,8.34782609 10.9988474,8.47076243 10.6533627,8.67798913 L8.30001687,6.00662374 L10.7906759,3.39690887 C11.1077616,3.557766 11.4758593,3.65217391 11.8695652,3.65217391 C13.0425671,3.65217391 14,2.83151713 14,1.82608696 C14,0.820656887 13.0425671,0 11.8695652,0 Z M11.8695652,0.52173913 C12.7136033,0.52173913 13.3913043,1.10262563 13.3913043,1.82608696 C13.3913043,2.54954817 12.7136033,3.13043478 11.8695652,3.13043478 C11.0255271,3.13043478 10.3478261,2.54954817 10.3478261,1.82608696 C10.3478261,1.10262563 11.0255271,0.52173913 11.8695652,0.52173913 Z M2.13043478,4.69565217 C2.97447287,4.69565217 3.65217391,5.27653878 3.65217391,6 C3.65217391,6.72346122 2.97447287,7.30434783 2.13043478,7.30434783 C1.28639657,7.30434783 0.608695652,6.72346122 0.608695652,6 C0.608695652,5.27653878 1.28639657,4.69565217 2.13043478,4.69565217 Z M11.8695652,8.86956522 C12.7136033,8.86956522 13.3913043,9.45045183 13.3913043,10.173913 C13.3913043,10.8973743 12.7136033,11.4782609 11.8695652,11.4782609 C11.0255271,11.4782609 10.3478261,10.8973743 10.3478261,10.173913 C10.3478261,9.45045183 11.0255271,8.86956522 11.8695652,8.86956522 Z" id="Shape"></path>
            </g>
        </g>
    </g>
</svg>