
<svg width="51px" height="51px" viewBox="0 0 51 51" version="1.1" xmlns="http://www.w3.org/2000/svg" xmlns:xlink="http://www.w3.org/1999/xlink">
    <!-- Generator: Sketch 49.3 (51167) - http://www.bohemiancoding.com/sketch -->
    <desc>Created with Sketch.</desc>
    <defs>
        <path d="M3.73918269,3.04261364 L24.1514423,3.04261364 L24.1514423,23.9029235 C24.1514423,24.7849645 23.4369279,25.5 22.5497265,25.5 L5.34089847,25.5 C4.45629527,25.5 3.73918269,24.7782376 3.73918269,23.9029235 L3.73918269,3.04261364 Z" id="path-1"></path>
    </defs>
    <g id="Page-1" stroke="none" stroke-width="1" fill="none" fill-rule="evenodd">
        <g id="Artboard" transform="translate(-899.000000, -520.000000)">
            <g id="Action-Icons_All-Selection" transform="translate(899.000000, 382.000000)">
                <g id="Delete-All-Icon" transform="translate(0.000000, 138.000000)">
                    <rect id="Rectangle-8" fill="#B8D9D2" x="0" y="0" width="51" height="51" rx="2.4"></rect>
                    <g id="Trash-ViewTask-Icon" transform="translate(11.156250, 13.546875)">
                        <ellipse id="Oval" stroke="#EFEFEF" stroke-width="2.4" cx="13.9453125" cy="3.36860795" rx="3.40204327" ry="3.36860795"></ellipse>
                        <g id="Rectangle-7">
                            <use fill="#B8D9D2" fill-rule="evenodd" xlink:href="#path-1"></use>
                            <path stroke="#EFEFEF" stroke-width="2.4" d="M4.93918269,4.24261364 L4.93918269,23.9029235 C4.93918269,24.1178204 5.12136144,24.3 5.34089847,24.3 L22.5497265,24.3 C22.7737664,24.3 22.9514423,24.12264 22.9514423,23.9029235 L22.9514423,4.24261364 L4.93918269,4.24261364 Z"></path>
                        </g>
                        <path d="M10.7578125,11.15625 L10.7578125,20.1392045" id="Path-8" stroke="#EFEFEF" stroke-width="2.4" stroke-linecap="round"></path>
                        <path d="M17.1328125,11.15625 L17.1328125,20.1392045" id="Path-8" stroke="#EFEFEF" stroke-width="2.4" stroke-linecap="round"></path>
                        <rect id="Rectangle-6" fill="#EFEFEF" x="0" y="2.390625" width="27.890625" height="4.24869472" rx="2.12434736"></rect>
                    </g>
                </g>
            </g>
        </g>
    </g>
</svg>