<svg width="14px" height="14px" viewBox="0 0 14 14" version="1.1" xmlns="http://www.w3.org/2000/svg" xmlns:xlink="http://www.w3.org/1999/xlink">
    <!-- Generator: Sketch 49.3 (51167) - http://www.bohemiancoding.com/sketch -->
    <desc>Created with Sketch.</desc>
    <defs></defs>
    <g id="Page-1" stroke="none" stroke-width="1" fill="none" fill-rule="evenodd">
        <g id="Artboard" transform="translate(-25.000000, -691.000000)" stroke="#F0405E">
            <g id="Information-Icon" transform="translate(26.000000, 692.000000)">
                <circle id="Oval-3" cx="5.95502836" cy="5.95502836" r="5.95502836"></circle>
                <path d="M5.21398601,5.95804196 L6.72447552,5.95804196 L6.72447552,12 L5.21398601,12 L5.21398601,5.95804196 Z M5,3.90629371 C5,3.66293585 5.09020889,3.45104985 5.27062937,3.27062937 C5.45104985,3.09020889 5.6797189,3 5.95664336,3 C6.23356782,3 6.46643262,3.08601313 6.65524476,3.25804196 C6.84405689,3.43007079 6.93846154,3.64615255 6.93846154,3.90629371 C6.93846154,4.16643487 6.84405689,4.38251662 6.65524476,4.55454545 C6.46643262,4.72657429 6.23356782,4.81258741 5.95664336,4.81258741 C5.6797189,4.81258741 5.45104985,4.72237852 5.27062937,4.54195804 C5.09020889,4.36153756 5,4.14965157 5,3.90629371 Z" id="i" stroke-width="0.5" fill="#F0405E"></path>
            </g>
        </g>
    </g>
</svg>