<svg id="Layer_1" data-name="Layer 1" xmlns="http://www.w3.org/2000/svg" xmlns:xlink="http://www.w3.org/1999/xlink" viewBox="0 0 13.04 13.06"><defs><style>.cls-1,.cls-4{fill:none;}.cls-2{clip-path:url(#clip-path);}.cls-3{fill:#ef435f;}.cls-4{stroke:#f0efef;stroke-miterlimit:10;}</style><clipPath id="clip-path"><rect class="cls-1" x="0.01" y="0.04" width="13" height="13" rx="3" ry="3"/></clipPath></defs><title>Pause Bot_icon</title><g class="cls-2"><rect class="cls-3" x="-4.99" y="-4.96" width="23" height="23"/></g><path class="cls-4" d="M8,6A1.79,1.79,0,0,0,8.53,4.4,1.8,1.8,0,0,0,5,4.68,1.79,1.79,0,0,0,5.55,6a0,0,0,0,1,0,.08A4,4,0,0,0,3.16,9.55a.32.32,0,0,0,.11.25.32.32,0,0,0,.19.07h.07a3.93,3.93,0,0,0,2-1,.16.16,0,0,1,.27.1,4.29,4.29,0,0,0,.76,1.93.31.31,0,0,0,.24.13.32.32,0,0,0,.26-.12,4.39,4.39,0,0,0,.75-2A.11.11,0,0,1,8,8.86a4,4,0,0,0,2,.92h0a.35.35,0,0,0,.22-.08.3.3,0,0,0,.1-.25A4,4,0,0,0,8,6.12.08.08,0,0,1,8,6Z"/></svg>