<?xml version="1.0" encoding="UTF-8"?>
<svg width="42px" height="46px" viewBox="0 0 42 46" version="1.1" xmlns="http://www.w3.org/2000/svg" xmlns:xlink="http://www.w3.org/1999/xlink">
    <!-- Generator: Sketch 52.5 (67469) - http://www.bohemiancoding.com/sketch -->
    <title>Untitled</title>
    <desc>Created with Sketch.</desc>
    <g id="Page-1" stroke="none" stroke-width="1" fill="none" fill-rule="evenodd">
        <g id="server-disabled">
            <path d="M19.1317079,43.0052577 C13.5759101,43.0052577 8.28202247,40.6545155 4.52939326,36.6131546 C4.49966292,36.5818557 4.52042697,36.5296907 4.56337079,36.5268454 L35.4055281,34.520866 C35.448,34.5184948 35.4753708,34.5673402 35.4508315,34.6019588 C31.7845618,39.8412165 25.7398652,43.0052577 19.1317079,43.0052577 Z M4.66483146,25.53 C4.67238202,25.5143505 4.68795506,25.5039175 4.70541573,25.5024948 L39.0930337,22.7913402 C39.0949213,22.8491959 39.0958652,22.9008866 39.0958652,22.9430928 C39.0958652,25.3768247 38.7150337,27.6754021 37.9642247,29.7899794 C37.9571461,29.8113196 37.9359101,29.8250722 37.9132584,29.8236495 L3.69222472,27.6403093 C3.65635955,27.6379381 3.63465169,27.6 3.65022472,27.5672784 L4.66483146,25.53 Z M11.6684494,13.2280825 L35.6542247,11.7333196 C35.6721573,11.7323711 35.689618,11.740433 35.6990562,11.7556082 C36.8995955,13.5500825 37.8094382,15.5461031 38.3799775,17.6308041 C38.3894157,17.6644742 38.361573,17.6986186 38.3266517,17.695299 L10.5094382,15.2084536 C10.4716854,15.2046598 10.4509213,15.1634021 10.4707416,15.1316289 L11.628809,13.2517938 C11.6373034,13.237567 11.6519326,13.2290309 11.6684494,13.2280825 Z M41.6696629,21.6550928 L41.6493708,21.2984742 C41.6309663,20.9423299 41.4426742,19.3531959 41.3714157,18.947732 C40.7763371,15.5859381 39.4035506,12.348866 37.4002921,9.58696907 C37.1355506,9.22276289 36.7098876,9.01410309 36.2554382,9.04682474 L10.8006067,10.6326392 C10.3744719,10.6591959 9.98797753,10.891567 9.76334831,11.2562474 L7.06826966,15.6314639 C6.82759551,16.0217526 6.80588764,16.5092577 7.00975281,16.9189897 C7.21408989,17.3291959 7.61521348,17.6042474 8.07013483,17.6445567 L36.8354157,20.2167629 C36.8962921,20.2224536 36.8958202,20.3120825 36.8344719,20.3168247 L3.72997753,22.9269691 C3.27033708,22.9630103 2.86213483,23.2390103 2.65638202,23.6534845 L0.375168539,28.2368866 C0.177438202,28.6333402 0.191123596,29.103299 0.411033708,29.4874227 C0.63094382,29.8720206 1.02829213,30.1200412 1.46811236,30.1480206 L31.1937303,32.0449278 C31.2560225,32.0487216 31.2560225,32.1411959 31.1937303,32.1454639 L1.74134831,34.0603918 C1.16089888,34.0983299 0.660674157,34.5175464 0.536561798,35.1160206 C0.456808989,35.5001443 0.577617978,35.900866 0.806022472,36.2185979 C5.05038202,42.125567 11.8944944,45.6495464 19.1317079,45.6495464 C27.5954157,45.6495464 35.2493258,41.0495464 39.107191,33.6444948 C39.296427,33.2807629 39.8764045,32.1151134 40.0420449,31.7177113 C41.1604719,29.0335876 41.727236,26.0815258 41.727236,22.9430928 C41.727236,22.6234639 41.6951461,22.0866392 41.6696629,21.6550928 Z" id="Fill-1" fill="#6D6E70" fill-rule="nonzero"></path>
            <path d="M19.1317079,43.0052577 C13.5759101,43.0052577 8.28202247,40.6545155 4.52939326,36.6131546 C4.49966292,36.5818557 4.52042697,36.5296907 4.56337079,36.5268454 L35.4055281,34.520866 C35.448,34.5184948 35.4753708,34.5673402 35.4508315,34.6019588 C31.7845618,39.8412165 25.7398652,43.0052577 19.1317079,43.0052577 Z M4.66483146,25.53 C4.67238202,25.5143505 4.68795506,25.5039175 4.70541573,25.5024948 L39.0930337,22.7913402 C39.0949213,22.8491959 39.0958652,22.9008866 39.0958652,22.9430928 C39.0958652,25.3768247 38.7150337,27.6754021 37.9642247,29.7899794 C37.9571461,29.8113196 37.9359101,29.8250722 37.9132584,29.8236495 L3.69222472,27.6403093 C3.65635955,27.6379381 3.63465169,27.6 3.65022472,27.5672784 L4.66483146,25.53 Z M11.6684494,13.2280825 L35.6542247,11.7333196 C35.6721573,11.7323711 35.689618,11.740433 35.6990562,11.7556082 C36.8995955,13.5500825 37.8094382,15.5461031 38.3799775,17.6308041 C38.3894157,17.6644742 38.361573,17.6986186 38.3266517,17.695299 L10.5094382,15.2084536 C10.4716854,15.2046598 10.4509213,15.1634021 10.4707416,15.1316289 L11.628809,13.2517938 C11.6373034,13.237567 11.6519326,13.2290309 11.6684494,13.2280825 Z M41.6696629,21.6550928 L41.6493708,21.2984742 C41.6309663,20.9423299 41.4426742,19.3531959 41.3714157,18.947732 C40.7763371,15.5859381 39.4035506,12.348866 37.4002921,9.58696907 C37.1355506,9.22276289 36.7098876,9.01410309 36.2554382,9.04682474 L10.8006067,10.6326392 C10.3744719,10.6591959 9.98797753,10.891567 9.76334831,11.2562474 L7.06826966,15.6314639 C6.82759551,16.0217526 6.80588764,16.5092577 7.00975281,16.9189897 C7.21408989,17.3291959 7.61521348,17.6042474 8.07013483,17.6445567 L36.8354157,20.2167629 C36.8962921,20.2224536 36.8958202,20.3120825 36.8344719,20.3168247 L3.72997753,22.9269691 C3.27033708,22.9630103 2.86213483,23.2390103 2.65638202,23.6534845 L0.375168539,28.2368866 C0.177438202,28.6333402 0.191123596,29.103299 0.411033708,29.4874227 C0.63094382,29.8720206 1.02829213,30.1200412 1.46811236,30.1480206 L31.1937303,32.0449278 C31.2560225,32.0487216 31.2560225,32.1411959 31.1937303,32.1454639 L1.74134831,34.0603918 C1.16089888,34.0983299 0.660674157,34.5175464 0.536561798,35.1160206 C0.456808989,35.5001443 0.577617978,35.900866 0.806022472,36.2185979 C5.05038202,42.125567 11.8944944,45.6495464 19.1317079,45.6495464 C27.5954157,45.6495464 35.2493258,41.0495464 39.107191,33.6444948 C39.296427,33.2807629 39.8764045,32.1151134 40.0420449,31.7177113 C41.1604719,29.0335876 41.727236,26.0815258 41.727236,22.9430928 C41.727236,22.6234639 41.6951461,22.0866392 41.6696629,21.6550928 Z" id="Stroke-3"></path>
            <path d="M17.5348584,2.9481732 C18.0770831,2.9040701 18.6122292,2.88130722 19.1318022,2.88130722 C21.6546337,2.88130722 24.1014876,3.34557526 26.3893079,4.24518351 L17.2116,3.50870928 L17.5348584,2.9481732 Z M14.9242517,5.97800825 L32.0446787,7.3518433 C32.0796,7.35468866 32.1149933,7.35563711 32.1499146,7.35563711 C32.688836,7.35563711 33.1786787,7.02320412 33.3759371,6.51103918 C33.586409,5.96615258 33.4151056,5.34681237 32.9554652,4.98829691 C28.9635775,1.88021443 24.1831281,0.237018557 19.1318022,0.237018557 C18.3073753,0.237018557 17.4508584,0.286812371 16.5877348,0.384028866 C16.1729258,0.43097732 15.8053079,0.67283299 15.5962517,1.03561649 L13.8898247,3.99763711 C13.6637798,4.39077113 13.6538697,4.87258557 13.8638697,5.27425567 C14.0733978,5.67592577 14.4740494,5.94196701 14.9242517,5.97800825 Z" id="Fill-5" fill="#6D6E70" fill-rule="nonzero"></path>
            <path d="M17.5348584,2.9481732 C18.0770831,2.9040701 18.6122292,2.88130722 19.1318022,2.88130722 C21.6546337,2.88130722 24.1014876,3.34557526 26.3893079,4.24518351 L17.2116,3.50870928 L17.5348584,2.9481732 Z M14.9242517,5.97800825 L32.0446787,7.3518433 C32.0796,7.35468866 32.1149933,7.35563711 32.1499146,7.35563711 C32.688836,7.35563711 33.1786787,7.02320412 33.3759371,6.51103918 C33.586409,5.96615258 33.4151056,5.34681237 32.9554652,4.98829691 C28.9635775,1.88021443 24.1831281,0.237018557 19.1318022,0.237018557 C18.3073753,0.237018557 17.4508584,0.286812371 16.5877348,0.384028866 C16.1729258,0.43097732 15.8053079,0.67283299 15.5962517,1.03561649 L13.8898247,3.99763711 C13.6637798,4.39077113 13.6538697,4.87258557 13.8638697,5.27425567 C14.0733978,5.67592577 14.4740494,5.94196701 14.9242517,5.97800825 Z" id="Stroke-7"></path>
        </g>
    </g>
</svg>