
<svg width="43px" height="60px" viewBox="0 0 43 60" version="1.1" xmlns="http://www.w3.org/2000/svg" xmlns:xlink="http://www.w3.org/1999/xlink">
    <!-- Generator: Sketch 49.3 (51167) - http://www.bohemiancoding.com/sketch -->
    <desc>Created with Sketch.</desc>
    <defs></defs>
    <g id="Page-1" stroke="none" stroke-width="1" fill="none" fill-rule="evenodd">
        <g id="Artboard" transform="translate(-29.000000, -444.000000)">
            <g id="Server-Icon" transform="translate(30.000000, 444.000000)">
                <g id="Page-1">
                    <path d="M39.9179368,33.2156532 C39.9179368,44.0077457 31.0669895,52.7559538 20.1490947,52.7559538 C9.23077895,52.7559538 0.380252632,44.0077457 0.380252632,33.2156532 C0.380252632,22.4239769 9.23077895,13.6753526 20.1490947,13.6753526 C31.0669895,13.6753526 39.9179368,22.4239769 39.9179368,33.2156532 Z" id="Stroke-1" stroke="#EF415E" stroke-width="2.567"></path>
                    <path d="M22.4364211,35.9155699 C22.8208421,36.5369341 22.8347368,37.3176971 22.4738947,37.9536277 L18.652,44.6596162 L27.1248421,36.3392462 L20.5854737,25.4214659 C20.3303158,24.996541 20.2423158,24.4950382 20.3387368,24.0093503 L22.3,14.0912462 L15.7437895,25.1005873 L22.4364211,35.9155699 Z M9.66884211,58.3342058 C9.21873684,58.3342058 8.79221053,58.1914543 8.43431579,57.9221827 C7.63094737,57.3170497 7.39810526,56.2037549 7.89326316,55.3326798 L18.3362105,37.0080555 L11.6301053,26.171015 C11.2364211,25.5355006 11.2301053,24.7410035 11.6132632,24.0984139 L24.8275789,1.90826358 C25.1917895,1.29605549 25.8650526,0.915662428 26.5842105,0.915662428 C26.8313684,0.915662428 27.0738947,0.959778035 27.3050526,1.04676069 C28.236,1.39593988 28.7736842,2.35025202 28.5825263,3.31580116 L24.4856842,24.0297434 L31.4385263,35.6358936 C31.9147368,36.4308069 31.7837895,37.4400555 31.1210526,38.0905526 L11.1050526,57.7490497 C10.7206316,58.1261133 10.2103158,58.3342058 9.66884211,58.3342058 L9.66884211,58.3342058 Z" id="Fill-7" fill="#EF415E"></path>
                    <path d="M16.6942316,25.0927214 L20.5864421,18.5561202 L19.5388632,23.8545711 C19.4045474,24.5354497 19.5274947,25.2371376 19.8841263,25.8322821 L26.1001263,36.2094382 L22.2453895,39.995889 L23.1830737,38.3498775 C23.6896,37.4592416 23.6698105,36.3655075 23.1312842,35.4952647 L16.6942316,25.0927214 Z M26.5834947,0.110386127 L26.5834947,0.110386127 C25.5771789,0.110386127 24.6344421,0.64310289 24.1245474,1.50002775 L10.9106526,23.6905942 C10.3746526,24.5895538 10.3843368,25.7011838 10.9350737,26.5914035 L17.3910737,37.0247445 L7.18391579,54.9369295 C6.49002105,56.1576 6.81549474,57.7157965 7.94138947,58.5635653 C8.43528421,58.9348023 9.04875789,59.1395653 9.66854737,59.1395653 C10.4268632,59.1395653 11.1409684,58.848652 11.6790737,58.3205133 L31.6954947,38.6620162 C32.6234947,37.7509873 32.8062316,36.3380393 32.1392842,35.2255769 L25.3451789,23.8832879 L29.3822316,3.4702474 C29.6496,2.11806243 28.8971789,0.782108671 27.5944421,0.293507514 C27.2702316,0.171981503 26.9304421,0.110386127 26.5834947,0.110386127 L26.5834947,0.110386127 Z M24.0133895,9.62645549 L14.7936,25.1085364 L21.7405474,36.3359584 C21.9721263,36.7092763 21.9805474,37.1770682 21.7632842,37.559126 L15.0584421,49.324259 L28.1489684,36.4683052 L21.2858105,25.0111491 C21.1333895,24.7560277 21.0807579,24.4547098 21.1384421,24.1642127 L24.0133895,9.62645549 L24.0133895,9.62645549 Z M26.5834947,1.72143815 C26.7283368,1.72143815 26.8748632,1.74640925 27.0163368,1.79968092 C27.5733895,2.00860578 27.8967579,2.58377341 27.7826526,3.16143815 L23.6264421,24.1762821 L30.7376,36.0462936 C31.0222316,36.5224092 30.9443368,37.1292069 30.5468632,37.5187561 L10.5304421,57.1776694 C10.2938105,57.4099006 9.98223158,57.5289295 9.66854737,57.5289295 C9.40917895,57.5289295 9.14854737,57.4473572 8.92875789,57.2817156 C8.44328421,56.9163052 8.30475789,56.2533225 8.60412632,55.7272647 L19.2811789,36.9914497 L12.3253895,25.7507098 C12.0896,25.3703168 12.0858105,24.8925364 12.3148632,24.5075653 L25.5296,2.31658266 C25.7548632,1.93868671 26.1607579,1.72143815 26.5834947,1.72143815 L26.5834947,1.72143815 Z" id="Fill-9" fill="#F4F4F4"></path>
                </g>
            </g>
        </g>
    </g>
</svg>