<svg width="325px" height="325px" viewBox="0 0 325 325" version="1.1" xmlns="http://www.w3.org/2000/svg" xmlns:xlink="http://www.w3.org/1999/xlink">
    <g id="Page-1" stroke="none" stroke-width="1" fill="none" fill-rule="evenodd">
        <g id="Light-Mode-Icon" fill="#efefef" fill-rule="nonzero">
            <path d="M177.952009,0 L146.975446,0 L146.975446,46.4285714 L177.952009,46.4285714 L177.952009,0 Z M271.607143,31.7020089 L243.75,59.5591518 L265.440848,81.25 L293.297991,53.3928571 L271.607143,31.7020089 Z M53.3928571,31.7020089 L31.7020089,53.3928571 L59.5591518,81.25 L81.25,59.5591518 L53.3928571,31.7020089 Z M162.5,69.6428571 C111.428571,69.6428571 69.6428571,111.428571 69.6428571,162.5 C69.6428571,213.571429 111.428571,255.357143 162.5,255.357143 C213.571429,255.357143 255.357143,213.571429 255.357143,162.5 C255.357143,111.428571 213.571429,69.6428571 162.5,69.6428571 Z M325,147.047991 L278.571429,147.047991 L278.571429,178.024554 L325,178.024554 L325,147.047991 Z M46.4285714,147.047991 L0,147.047991 L0,178.024554 L46.4285714,178.024554 L46.4285714,147.047991 Z M265.440848,243.75 L243.75,265.440848 L271.607143,293.297991 L293.297991,271.607143 L265.440848,243.75 Z M59.5591518,243.75 L31.7020089,271.607143 L53.3928571,293.297991 L81.25,265.440848 L59.5591518,243.75 Z M177.952009,278.571429 L146.975446,278.571429 L146.975446,325 L177.952009,325 L177.952009,278.571429 Z" id="Shape"></path>
        </g>
    </g>
</svg>
