
<svg width="62px" height="51px" viewBox="0 0 62 51" version="1.1" xmlns="http://www.w3.org/2000/svg" xmlns:xlink="http://www.w3.org/1999/xlink">
    <!-- Generator: Sketch 49.3 (51167) - http://www.bohemiancoding.com/sketch -->
    <defs></defs>
    <g id="Page-1" stroke="none" stroke-width="1" fill="none" fill-rule="evenodd">
        <g id="Artboard" transform="translate(-28.000000, -174.000000)">
            <g id="Tasks-Icon" transform="translate(29.000000, 174.000000)">
                <g id="Page-1">
                    <path d="M43.3541773,27.5481298 C43.3541773,39.2817452 33.7333336,48.7938702 21.8645445,48.7938702 C9.99670859,48.7938702 0.375388281,39.2817452 0.375388281,27.5481298 C0.375388281,15.8145144 9.99670859,6.30286058 21.8645445,6.30286058 C33.7333336,6.30286058 43.3541773,15.8145144 43.3541773,27.5481298 Z" id="Stroke-1" stroke="#F0405E" stroke-width="2.57599998"></path>
                    <path d="M23.800675,33.6627644 C24.0227531,33.8498125 24.2362531,33.8860913 24.380175,33.8860913 C24.6203625,33.8860913 24.8438703,33.7885625 25.0106672,33.6114087 L31.4590344,26.7448125 C30.6588859,27.2140817 29.8920969,27.6418894 29.1624797,28.0268221 C26.5628312,29.3964663 23.434675,30.1206298 20.1168469,30.1206298 C19.8909562,30.1206298 19.6645891,30.1178029 19.4386984,30.1107356 L23.800675,33.6627644 Z M20.1039797,37.976649 L5.8857375,25.8350144 C4.84158906,24.9520721 4.53563594,23.4684087 5.16469844,22.3121971 C5.66651875,21.3877933 6.63441719,20.8134567 7.69047969,20.8134567 C8.30143281,20.8134567 8.88474531,21.0019183 9.37751094,21.3590529 C9.3779875,21.3590529 10.9029875,22.397476 14.4104875,23.5442644 C16.4463625,24.210476 18.4055109,24.5478221 20.2326516,24.5478221 C22.4715422,24.5478221 24.5703234,24.0394471 26.4722844,23.0373029 C37.4222609,17.2670817 54.4188625,2.28391827 54.5889953,2.13362019 C55.1136906,1.66953365 55.7904094,1.41369712 56.4947687,1.41369712 C57.2691828,1.41369712 57.9940344,1.71429327 58.5358859,2.26036058 C59.6086281,3.34024519 59.6324562,5.05477404 58.5906906,6.16434135 L29.2006047,37.458851 C27.9572531,38.7832644 26.2001672,39.5427644 24.380175,39.5427644 C22.8175266,39.5427644 21.2987219,38.9863317 20.1039797,37.976649 Z" id="Fill-3" fill="#F0405E"></path>
                    <path d="M23.18915,31.3338981 C24.0250406,31.2231769 24.8432984,31.0662827 25.6382047,30.8655712 L24.3281344,32.2611288 L23.18915,31.3338981 Z M56.49515,0.000282692308 L56.4946734,0.000282692308 C55.4381344,0.000282692308 54.4221031,0.384273077 53.6348219,1.08110962 C53.4665953,1.22952308 36.5991422,16.0986673 25.8002359,21.7897346 C24.1070094,22.6821 22.2341187,23.1344077 20.2325562,23.1344077 C18.5579156,23.1344077 16.7498375,22.8206192 14.8593141,22.2024654 C11.7120953,21.1734654 10.2795484,20.2533019 10.1799469,20.1882827 C9.44461094,19.6709558 8.58679844,19.4000423 7.69086094,19.4000423 C6.10724375,19.4000423 4.6565875,20.2594269 3.90457187,21.6432058 C2.96050156,23.3808212 3.40465781,25.5971288 4.9615875,26.9140038 L19.1636266,39.0415038 C20.6281031,40.279225 22.4766891,40.9562731 24.3800797,40.9562731 C26.5960953,40.9562731 28.7353844,40.0318692 30.2484703,38.4205231 L59.6380797,7.12554231 C61.2012047,5.46236923 61.1649859,2.88986923 59.5556344,1.26957115 C58.7426187,0.451176923 57.6555797,0.000282692308 56.49515,0.000282692308 L56.49515,0.000282692308 Z M20.1167516,28.7072154 C18.3639547,28.7072154 16.5696969,28.4951962 14.7945016,28.0786962 C14.7916422,28.0777538 14.7883062,28.0772827 14.7854469,28.0772827 C14.7559,28.0772827 14.7392203,28.1145038 14.7640016,28.1357058 L22.891775,34.7540038 C23.3235406,35.1191481 23.8530016,35.2996 24.3796031,35.2996 C24.9938922,35.2996 25.6053219,35.0546 26.0580562,34.5735519 L40.9015484,18.7672827 C40.9244234,18.7427827 40.9039312,18.7102731 40.8772437,18.7102731 C40.8710484,18.7102731 40.8634234,18.7121577 40.856275,18.7173404 C36.6630016,21.8147058 32.2791031,24.7820327 28.4899547,26.7792538 C26.0237437,28.0786962 23.1314859,28.7072154 20.1167516,28.7072154 L20.1167516,28.7072154 Z M56.4946734,2.82720577 C56.8659156,2.82720577 57.2362047,2.96902308 57.5154703,3.25030192 C58.05065,3.78930192 58.0630406,4.64868654 57.5431109,5.20229231 L28.153025,36.4968019 C27.1374703,37.5785712 25.7621109,38.12935 24.3800797,38.12935 C23.1953453,38.12935 22.0058453,37.7241577 21.0331812,36.9019942 L6.82018125,24.7655423 C6.299775,24.3250135 6.09961875,23.5777635 6.42368125,22.9808115 C6.69150937,22.4884558 7.1880875,22.2269654 7.69086094,22.2269654 C7.98442344,22.2269654 8.27989219,22.3155423 8.53342344,22.4997635 C8.55820469,22.5176673 10.1708922,23.6470231 13.9614703,24.8861577 C16.1527047,25.6027827 18.2471969,25.9613308 20.2325562,25.9613308 C22.7135406,25.9613308 25.0248687,25.4020712 27.1450953,24.2844942 C38.2656812,18.4242827 55.3704625,3.33887885 55.5425016,3.18716731 C55.8141422,2.94640769 56.1548844,2.82720577 56.4946734,2.82720577 L56.4946734,2.82720577 Z" id="Fill-5" fill="#F4F4F4"></path>
                </g>
            </g>
        </g>
    </g>
</svg>