
<svg width="13px" height="13px" viewBox="0 0 13 13" version="1.1" xmlns="http://www.w3.org/2000/svg" xmlns:xlink="http://www.w3.org/1999/xlink">
    <g id="Page-1" stroke="none" stroke-width="1" fill="none" fill-rule="evenodd">
        <g id="sun" fill="#EFEFEF" fill-rule="nonzero">
            <path d="M7.11808036,0 L5.87901784,0 L5.87901784,1.85714286 L7.11808036,1.85714286 L7.11808036,0 Z M10.8642857,1.26808036 L9.75,2.38236607 L10.6176339,3.25 L11.7319196,2.13571428 L10.8642857,1.26808036 Z M2.13571428,1.26808036 L1.26808036,2.13571428 L2.38236607,3.25 L3.25,2.38236607 L2.13571428,1.26808036 Z M6.5,2.78571428 C4.45714284,2.78571428 2.78571428,4.45714284 2.78571428,6.5 C2.78571428,8.54285716 4.45714284,10.2142857 6.5,10.2142857 C8.54285716,10.2142857 10.2142857,8.54285716 10.2142857,6.5 C10.2142857,4.45714284 8.54285716,2.78571428 6.5,2.78571428 Z M13,5.88191964 L11.1428572,5.88191964 L11.1428572,7.12098216 L13,7.12098216 L13,5.88191964 Z M1.85714286,5.88191964 L0,5.88191964 L0,7.12098216 L1.85714286,7.12098216 L1.85714286,5.88191964 Z M10.6176339,9.75 L9.75,10.6176339 L10.8642857,11.7319196 L11.7319196,10.8642857 L10.6176339,9.75 Z M2.38236607,9.75 L1.26808036,10.8642857 L2.13571428,11.7319196 L3.25,10.6176339 L2.38236607,9.75 Z M7.11808036,11.1428572 L5.87901784,11.1428572 L5.87901784,13 L7.11808036,13 L7.11808036,11.1428572 Z" id="Shape"></path>
        </g>
    </g>
</svg>
