
<svg width="79px" height="94px" viewBox="0 0 79 94" version="1.1" xmlns="http://www.w3.org/2000/svg" xmlns:xlink="http://www.w3.org/1999/xlink">
    <!-- Generator: Sketch 49.3 (51167) - http://www.bohemiancoding.com/sketch -->
    <desc>Created with Sketch.</desc>
    <defs></defs>
    <g id="Page-1" stroke="none" stroke-width="1" fill="none" fill-rule="evenodd">
        <g id="Artboard" transform="translate(-17.000000, -18.000000)">
            <g id="Page-1" transform="translate(18.000000, 19.000000)">
                <path d="M68.015,64.5204 L74.288,47.8824 C76.114,43.0414 76.149,37.7074 74.388,32.8434 L68.243,15.8734 C66.093,9.9334 60.453,5.9774 54.136,5.9774 C27.843,5.9774 6.529,27.2914 6.529,53.5834 C6.529,65.7864 16.196,75.7934 28.391,76.2124 C35.621,76.4614 43.453,76.6994 49.88,76.8184 C57.919,76.9664 65.178,72.0434 68.015,64.5204 Z" id="Stroke-1" stroke="#EF415E" stroke-width="3.277"></path>
                <path d="M57.9247,80.9481 L65.9997,52.6841 C69.2527,41.3011 68.0167,29.1031 62.5487,18.6031 C55.4837,5.0401 40.1067,-1.9889 25.2277,1.5451 C6.0387,6.1021 -2.3073,28.7381 9.3287,44.6621 L11.0437,47.0081 C14.3717,51.5621 17.4277,56.3091 20.1967,61.2231 L32.9437,83.8491 C38.8767,94.3811 54.5637,92.5581 57.9247,80.9481 Z" id="Stroke-3" stroke="#EFEFEF" stroke-width="3.277"></path>
                <path d="M70.5644,59.5643 L70.5644,59.5643 C71.7894,57.9563 72.1294,55.8423 71.4704,53.9313 L70.8574,36.3053 C70.1254,15.2633 49.0254,0.7183 29.3074,8.1013 C28.9724,8.2263 28.6454,8.3543 28.3244,8.4863 C22.0064,11.0813 16.7964,15.8073 13.6014,21.8433 L3.8534,40.2553 C-0.3266,48.1523 -0.4356,57.5803 3.5594,65.5713 L10.0594,78.5723 C12.9874,84.4273 19.3984,87.6813 25.8534,86.5893 C43.6454,83.5793 59.6284,73.9183 70.5644,59.5643 Z" id="Stroke-5" stroke="#B8D9D2" stroke-width="3.277"></path>
                <path d="M36.9579,31.0184 C37.0479,31.8314 37.1159,32.7464 37.1609,33.7624 C37.2059,34.7784 37.2289,35.6244 37.2289,36.3024 L37.4319,36.3024 C37.8379,35.4454 38.3909,34.6424 39.0919,33.8974 C39.7909,33.1524 40.5929,32.4984 41.4969,31.9334 C42.3989,31.3694 43.3929,30.9284 44.4769,30.6124 C45.5609,30.2964 46.6889,30.1384 47.8639,30.1384 C49.9399,30.1384 51.7249,30.4884 53.2149,31.1884 C54.7059,31.8884 55.9469,32.8254 56.9409,33.9984 C57.9339,35.1734 58.6679,36.5504 59.1419,38.1314 C59.6169,39.7124 59.8539,41.4064 59.8539,43.2114 L59.8539,63.1264 L53.4859,63.1264 L53.4859,45.3114 C53.4859,44.0024 53.3849,42.7604 53.1809,41.5854 C52.9779,40.4124 52.6049,39.3734 52.0629,38.4694 C51.5219,37.5674 50.7769,36.8444 49.8279,36.3024 C48.8799,35.7604 47.6609,35.4894 46.1699,35.4894 C43.6409,35.4894 41.5749,36.4494 39.9719,38.3684 C38.3689,40.2884 37.5669,42.8504 37.5669,46.0564 L37.5669,63.1264 L31.1999,63.1264 L31.1999,37.9284 C31.1999,37.0714 31.1769,35.9634 31.1319,34.6094 C31.0869,33.2534 31.0189,32.0584 30.9289,31.0184 L36.9579,31.0184 Z" id="Fill-7" fill="#6D6E70"></path>
                <path d="M36.9579,31.0184 C37.0479,31.8314 37.1159,32.7464 37.1609,33.7624 C37.2059,34.7784 37.2289,35.6244 37.2289,36.3024 L37.4319,36.3024 C37.8379,35.4454 38.3909,34.6424 39.0919,33.8974 C39.7909,33.1524 40.5929,32.4984 41.4969,31.9334 C42.3989,31.3694 43.3929,30.9284 44.4769,30.6124 C45.5609,30.2964 46.6889,30.1384 47.8639,30.1384 C49.9399,30.1384 51.7249,30.4884 53.2149,31.1884 C54.7059,31.8884 55.9469,32.8254 56.9409,33.9984 C57.9339,35.1734 58.6679,36.5504 59.1419,38.1314 C59.6169,39.7124 59.8539,41.4064 59.8539,43.2114 L59.8539,63.1264 L53.4859,63.1264 L53.4859,45.3114 C53.4859,44.0024 53.3849,42.7604 53.1809,41.5854 C52.9779,40.4124 52.6049,39.3734 52.0629,38.4694 C51.5219,37.5674 50.7769,36.8444 49.8279,36.3024 C48.8799,35.7604 47.6609,35.4894 46.1699,35.4894 C43.6409,35.4894 41.5749,36.4494 39.9719,38.3684 C38.3689,40.2884 37.5669,42.8504 37.5669,46.0564 L37.5669,63.1264 L31.1999,63.1264 L31.1999,37.9284 C31.1999,37.0714 31.1769,35.9634 31.1319,34.6094 C31.0869,33.2534 31.0189,32.0584 30.9289,31.0184 L36.9579,31.0184 Z" id="Stroke-9" stroke="#6D6E70" stroke-width="0.5"></path>
            </g>
        </g>
    </g>
</svg>