
<svg width="47px" height="47px" viewBox="0 0 47 47" version="1.1" xmlns="http://www.w3.org/2000/svg" xmlns:xlink="http://www.w3.org/1999/xlink">
    <!-- Generator: Sketch 49.3 (51167) - http://www.bohemiancoding.com/sketch -->
    <defs></defs>
    <g id="Page-1" stroke="none" stroke-width="1" fill="none" fill-rule="evenodd">
        <g id="Artboard" transform="translate(-27.000000, -268.000000)" stroke="#EF415E" stroke-width="2.567">
            <g id="Profile-Icon" transform="translate(29.000000, 270.000000)">
                <g id="Page-1">
                    <path d="M43.0009536,21.5 C43.0009536,33.3743014 33.375255,43 21.5004768,43 C9.62617537,43 0,33.3743014 0,21.5 C0,9.62569857 9.62617537,0 21.5004768,0 C33.375255,0 43.0009536,9.62569857 43.0009536,21.5 Z" id="Stroke-1"></path>
                    <path d="M25.3413326,18.8679129 C26.6450469,17.6357701 27.3710469,15.7984844 27.0637612,13.8099129 C26.6754755,11.3027701 24.5990469,9.32148435 22.0781898,9.03734149 C18.6320469,8.64862721 15.7014755,11.3464844 15.7014755,14.7163415 C15.7014755,16.3993415 16.4334755,17.9139129 17.5949041,18.9609129 C17.6857612,19.0431986 17.6570469,19.1884844 17.5417612,19.2296272 C10.3966184,21.7727701 10.0040469,30.0819129 10.0006184,30.1736272 C9.98990407,30.4761986 10.1189041,30.7667701 10.3503326,30.9613415 C10.5200469,31.1036272 10.7304755,31.1829129 10.9473326,31.1906272 C11.0270469,31.1936272 11.1076184,31.1867701 11.1873326,31.1700558 C14.0981898,30.5507701 16.1364755,29.3614844 17.5661898,27.9724844 C17.8636184,27.6840558 18.3637612,27.8511986 18.4160469,28.2621986 C18.6611898,30.1907701 19.3670469,32.2843415 20.8417612,34.4070558 C21.0153326,34.6569129 21.3024755,34.8073415 21.6067612,34.8189129 L21.6157612,34.8193415 C21.9277612,34.8279129 22.2260469,34.6869129 22.4180469,34.4400558 C22.4519041,34.3967701 24.3654755,31.8699129 24.8146184,28.2300558 C24.8510469,27.9351986 25.1994755,27.8031986 25.4214755,28.0016272 C26.8824755,29.3074844 28.9250469,30.3986272 31.7814755,30.9244844 C31.8294755,30.9334844 31.8770469,30.9386272 31.9241898,30.9403415 C32.1749041,30.9493415 32.4217612,30.8619129 32.6120469,30.6930558 C32.8383326,30.4920558 32.9596184,30.1980558 32.9403326,29.8959129 C32.9347612,29.8059129 32.3334755,21.7671986 25.4364755,19.2776272 C25.2624755,19.2150558 25.2071898,18.9947701 25.3413326,18.8679129 Z" id="Stroke-3"></path>
                </g>
            </g>
        </g>
    </g>
</svg>