
<svg width="57px" height="66px" viewBox="0 0 57 66" version="1.1" xmlns="http://www.w3.org/2000/svg" xmlns:xlink="http://www.w3.org/1999/xlink">
    <!-- Generator: Sketch 49.1 (51147) - http://www.bohemiancoding.com/sketch -->
    <desc>Created with Sketch.</desc>
    <defs></defs>
    <g id="Page-1" stroke="none" stroke-width="1" fill="none" fill-rule="evenodd">
        <g id="MAIN-THEME" transform="translate(-26.000000, -583.000000)" fill="#050404">
            <g id="SIDEBAR" transform="translate(0.000000, 12.000000)">
                <g id="SERVER" transform="translate(8.000000, 559.000000)">
                    <text font-family="OpenSans-Bold, Open Sans" font-size="10" font-weight="bold" letter-spacing="0.492000014">
                        <tspan x="27.1179112" y="76.0079118">SERVER</tspan>
                    </text>
                    <g id="Group" transform="translate(18.534447, 12.886137)">
                        <path d="M32.5476115,10.3097025 C32.5476115,8.12342069 30.6264459,6.34394431 28.265031,6.34394431 C25.9036162,6.34394431 23.9824506,8.12342069 23.9824506,10.3097025 C23.9824506,12.4951913 25.9036162,14.2738747 28.265031,14.2738747 C30.6264459,14.2738747 32.5476115,12.4951913 32.5476115,10.3097025 L32.5476115,10.3097025 Z M25.6954828,10.3097025 C25.6954828,8.99729902 26.8483534,7.92993039 28.265031,7.92993039 C29.6817087,7.92993039 30.8345793,8.99729902 30.8345793,10.3097025 C30.8345793,11.621313 29.6817087,12.6878886 28.265031,12.6878886 C26.8483534,12.6878886 25.6954828,11.621313 25.6954828,10.3097025 L25.6954828,10.3097025 Z" id="Shape"></path>
                        <path d="M28.2444747,33.7672296 L28.9091311,33.0154722 C29.3742194,32.4897178 40.293943,20.049243 40.2562563,11.9099624 C40.2262783,5.34318709 34.8473572,0 28.265031,0 C21.6527268,0 16.2738058,5.34398009 16.2738058,11.9131344 C16.2738058,20.049243 27.1207255,32.4873388 27.5823877,33.0123002 L28.2444747,33.7672296 L28.2444747,33.7672296 Z M28.265031,1.58598608 C33.9069025,1.58598608 38.5175287,6.2202374 38.5432242,11.9170994 C38.5732022,18.3863366 30.6290155,28.3820138 28.2487572,31.2296518 C25.8813468,28.3788419 17.9868379,18.3839576 17.9868379,11.9131344 C17.9868379,6.21865141 22.5974641,1.58598608 28.265031,1.58598608 L28.265031,1.58598608 Z" id="Shape"></path>
                        <polygon id="Shape" points="37.6867081 23.7897912 37.6867081 25.3757772 44.8891519 25.3757772 53.3686612 39.6496519 3.1614009 39.6496519 11.6409102 25.3757772 18.843354 25.3757772 18.843354 23.7897912 10.6285082 23.7897912 0.264663473 41.235638 56.2653986 41.235638 45.9015539 23.7897912"></polygon>
                    </g>
                </g>
            </g>
        </g>
    </g>
</svg>