
<svg width="51px" height="65px" viewBox="0 0 51 65" version="1.1" xmlns="http://www.w3.org/2000/svg" xmlns:xlink="http://www.w3.org/1999/xlink">
    <!-- Generator: Sketch 49.1 (51147) - http://www.bohemiancoding.com/sketch -->
    <desc>Created with Sketch.</desc>
    <defs></defs>
    <g id="Page-1" stroke="none" stroke-width="1" fill="none" fill-rule="evenodd">
        <g id="MAIN-THEME" transform="translate(-28.000000, -697.000000)" fill="#050404">
            <g id="SIDEBAR" transform="translate(0.000000, 12.000000)">
                <g id="SETTINGS" transform="translate(8.000000, 673.000000)">
                    <text font-family="OpenSans-Bold, Open Sans" font-size="10" font-weight="bold" letter-spacing="0.492000014">
                        <tspan x="20.5705367" y="76">SETTINGS</tspan>
                    </text>
                    <g id="basic-gear" transform="translate(24.085069, 12.880943)">
                        <g id="Layer_1">
                            <g id="Group">
                                <path d="M36.9224112,13.05548 L41.2785665,9.01666023 L34.7380807,2.95360027 L30.3819254,6.99177596 L27.0957029,5.97611359 L27.0957029,0 L17.3690403,0 L17.3690403,5.97611359 L14.0828179,6.99113191 L9.72666259,2.95360027 L3.18617676,9.01666023 L7.54233208,13.05548 L6.44669301,16.101179 L0,16.101179 L0,25.1178392 L6.44669301,25.1178392 L7.54233208,28.1635382 L3.18617676,32.202358 L9.72666259,38.2654179 L14.0828179,34.2272422 L17.3690403,35.2429046 L17.3690403,41.2190182 L27.0957029,41.2190182 L27.0957029,35.2429046 L30.3819254,34.2278863 L34.7380807,38.266062 L41.2785665,32.202358 L36.9224112,28.1635382 L38.0180503,25.1178392 L44.4647433,25.1178392 L44.4647433,16.101179 L38.0180503,16.101179 L36.9224112,13.05548 L36.9224112,13.05548 Z M43.0752201,23.8297449 L37.016204,23.8297449 L35.3327966,28.5126118 L39.3137807,32.202358 L34.7380807,36.4440525 L30.7570966,32.7536623 L25.7061797,34.3141886 L25.7061797,39.9309239 L18.7585636,39.9309239 L18.7585636,34.3141886 L13.7076466,32.7530183 L9.72666259,36.4440525 L5.1509626,32.202358 L9.13194665,28.5126118 L7.44853926,23.8297449 L1.38952323,23.8297449 L1.38952323,17.3892733 L7.44853926,17.3892733 L9.13194665,12.7064064 L5.1509626,9.01666023 L9.72666259,4.77496564 L13.7076466,8.46535586 L18.7585636,6.90482959 L18.7585636,1.28809432 L25.7061797,1.28809432 L25.7061797,6.90482959 L30.7570966,8.46599991 L34.7380807,4.77496564 L39.3137807,9.01666023 L35.3327966,12.7064064 L37.016204,17.3892733 L43.0752201,17.3892733 L43.0752201,23.8297449 L43.0752201,23.8297449 Z" id="Shape"></path>
                                <path d="M22.2323716,16.101179 C19.5505918,16.101179 17.3690403,18.1241311 17.3690403,20.6095091 C17.3690403,23.0948871 19.5505918,25.1178392 22.2323716,25.1178392 C24.9141515,25.1178392 27.0957029,23.0948871 27.0957029,20.6095091 C27.0957029,18.1241311 24.9141515,16.101179 22.2323716,16.101179 L22.2323716,16.101179 Z M22.2323716,23.8297449 C20.3169139,23.8297449 18.7585636,22.3851471 18.7585636,20.6095091 C18.7585636,18.8338711 20.3169139,17.3892733 22.2323716,17.3892733 C24.1478294,17.3892733 25.7061797,18.8338711 25.7061797,20.6095091 C25.7061797,22.3851471 24.1478294,23.8297449 22.2323716,23.8297449 L22.2323716,23.8297449 Z" id="Shape"></path>
                            </g>
                        </g>
                    </g>
                </g>
            </g>
        </g>
    </g>
</svg>