
<svg width="53px" height="63px" viewBox="0 0 53 63" version="1.1" xmlns="http://www.w3.org/2000/svg" xmlns:xlink="http://www.w3.org/1999/xlink">
    <!-- Generator: Sketch 49.1 (51147) - http://www.bohemiancoding.com/sketch -->
    <desc>Created with Sketch.</desc>
    <defs></defs>
    <g id="Page-1" stroke="none" stroke-width="1" fill="none" fill-rule="evenodd">
        <g id="MAIN-THEME" transform="translate(-28.000000, -239.000000)" fill="#050404">
            <g id="SIDEBAR" transform="translate(0.000000, 12.000000)">
                <g id="TASKS" transform="translate(8.000000, 215.000000)">
                    <text id="Tasks" font-family="OpenSans-Bold, Open Sans" font-size="10" font-weight="bold" letter-spacing="0.492000014">
                        <tspan x="30.980264" y="73.9348659">TASKS</tspan>
                    </text>
                    <g id="Group" transform="translate(20.310345, 12.740741)">
                        <path d="M43.3766164,0 L36.8292026,0 L36.8292026,3.06721536 L15.5501078,3.06721536 L15.5501078,0 L9.00269397,0 L9.00269397,3.06721536 L0,3.06721536 L0,41.4074074 L52.3793103,41.4074074 L52.3793103,3.06721536 L43.3766164,3.06721536 L43.3766164,0 L43.3766164,0 Z M38.466056,1.53360768 L41.7397629,1.53360768 L41.7397629,6.13443073 L38.466056,6.13443073 L38.466056,1.53360768 L38.466056,1.53360768 Z M10.6395474,1.53360768 L13.9132543,1.53360768 L13.9132543,6.13443073 L10.6395474,6.13443073 L10.6395474,1.53360768 L10.6395474,1.53360768 Z M1.63685345,39.8737997 L1.63685345,10.7352538 L50.7424569,10.7352538 L50.7424569,39.8737997 L1.63685345,39.8737997 L1.63685345,39.8737997 Z M50.7424569,4.60082305 L50.7424569,9.20164609 L1.63685345,9.20164609 L1.63685345,4.60082305 L9.00269397,4.60082305 L9.00269397,7.66803841 L15.5501078,7.66803841 L15.5501078,4.60082305 L36.8292026,4.60082305 L36.8292026,7.66803841 L43.3766164,7.66803841 L43.3766164,4.60082305 L50.7424569,4.60082305 L50.7424569,4.60082305 Z" id="Shape"></path>
                        <path d="M7.48275862,23.3580247 L17.1034483,23.3580247 L17.1034483,13.8024691 L7.48275862,13.8024691 L7.48275862,23.3580247 L7.48275862,23.3580247 Z M9.0862069,15.3950617 L15.5,15.3950617 L15.5,21.7654321 L9.0862069,21.7654321 L9.0862069,15.3950617 L9.0862069,15.3950617 Z" id="Shape"></path>
                        <path d="M7.48275862,37.1604938 L17.1034483,37.1604938 L17.1034483,27.6049383 L7.48275862,27.6049383 L7.48275862,37.1604938 L7.48275862,37.1604938 Z M9.0862069,29.1975309 L15.5,29.1975309 L15.5,35.5679012 L9.0862069,35.5679012 L9.0862069,29.1975309 L9.0862069,29.1975309 Z" id="Shape"></path>
                        <path d="M35.2758621,23.3580247 L44.8965517,23.3580247 L44.8965517,13.8024691 L35.2758621,13.8024691 L35.2758621,23.3580247 L35.2758621,23.3580247 Z M36.8793103,15.3950617 L43.2931034,15.3950617 L43.2931034,21.7654321 L36.8793103,21.7654321 L36.8793103,15.3950617 L36.8793103,15.3950617 Z" id="Shape"></path>
                        <path d="M35.2758621,37.1604938 L44.8965517,37.1604938 L44.8965517,27.6049383 L35.2758621,27.6049383 L35.2758621,37.1604938 L35.2758621,37.1604938 Z M36.8793103,29.1975309 L43.2931034,29.1975309 L43.2931034,35.5679012 L36.8793103,35.5679012 L36.8793103,29.1975309 L36.8793103,29.1975309 Z" id="Shape"></path>
                        <path d="M21.3796538,37.1604938 L31.0003435,37.1604938 L31.0003435,27.6049383 L21.3796538,27.6049383 L21.3796538,37.1604938 L21.3796538,37.1604938 Z M22.9831021,29.1975309 L29.3968952,29.1975309 L29.3968952,35.5679012 L22.9831021,35.5679012 L22.9831021,29.1975309 L22.9831021,29.1975309 Z" id="Shape"></path>
                        <path d="M21.3793103,23.3580247 L31,23.3580247 L31,13.8024691 L21.3793103,13.8024691 L21.3793103,23.3580247 L21.3793103,23.3580247 Z M22.9827586,15.3950617 L29.3965517,15.3950617 L29.3965517,21.7654321 L22.9827586,21.7654321 L22.9827586,15.3950617 L22.9827586,15.3950617 Z" id="Shape"></path>
                    </g>
                </g>
            </g>
        </g>
    </g>
</svg>