
<svg width="16px" height="16px" viewBox="0 0 16 16" version="1.1" xmlns="http://www.w3.org/2000/svg" xmlns:xlink="http://www.w3.org/1999/xlink">
    <!-- Generator: Sketch 49.1 (51147) - http://www.bohemiancoding.com/sketch -->
    <desc>Created with Sketch.</desc>
    <defs></defs>
    <g id="Page-1" stroke="none" stroke-width="1" fill="none" fill-rule="evenodd">
        <g id="MAIN-THEME" transform="translate(-14.000000, -962.000000)" fill="#050404" fill-rule="nonzero">
            <g id="SIDEBAR" transform="translate(0.000000, 12.000000)">
                <g id="BOTTOM-ICONS" transform="translate(14.000000, 950.000000)">
                    <g id="user">
                        <path d="M12.4789375,9.028375 C13.193375,8.0901875 13.625,6.90890625 13.625,5.625 C13.625,2.51846875 11.1066875,0 8,0 C4.89346875,0 2.375,2.5183125 2.375,5.625 C2.375,6.90853125 2.8064375,8.0899375 3.5210625,9.028375 C1.563375,9.2605 0,10.9265938 0,13 L0,13.890625 C0,15.05375 0.94625,16 2.109375,16 L13.890625,16 C15.05375,16 16,15.05375 16,13.890625 L16,13 C16,10.9258125 14.435875,9.26040625 12.4789375,9.028375 Z M8,1.5 C10.2781875,1.5 12.125,3.3468125 12.125,5.625 C12.125,7.9031875 10.2781875,9.75 8,9.75 C5.7218125,9.75 3.875,7.9031875 3.875,5.625 C3.875,3.3468125 5.7218125,1.5 8,1.5 Z M14.5,13.890625 C14.5,14.2271875 14.2271875,14.5 13.890625,14.5 L2.109375,14.5 C1.7728125,14.5 1.5,14.2271875 1.5,13.890625 L1.5,13 C1.5,11.6192813 2.61928125,10.5 4,10.5 L5.191875,10.5 C6.9258125,11.499 9.0676875,11.5027187 10.808125,10.5 L12,10.5 C13.3807187,10.5 14.5,11.6192813 14.5,13 L14.5,13.890625 Z" id="Shape"></path>
                    </g>
                </g>
            </g>
        </g>
    </g>
</svg>